<svg xmlns="http://www.w3.org/2000/svg" xmlns:xlink="http://www.w3.org/1999/xlink" xmlns:lucid="lucid" width="2220" height="1585.02"><g transform="translate(440 1065.0239105637909)" lucid:page-tab-id="0_0"><path d="M-1806.87-1258.83h3677.74v2581.66h-3677.74z" fill="#fff"/><path d="M1060-880h240v60h-240z" fill="none"/><use xlink:href="#a" transform="matrix(1,0,0,1,1060,-880) translate(94.75308641975309 34.44444444444444)"/><path d="M-420 306a6 6 0 0 1 6-6h348a6 6 0 0 1 6 6v128a6 6 0 0 1-6 6h-348a6 6 0 0 1-6-6z" stroke="#5e5e5e" stroke-width="3" fill="#fff"/><path d="M-420 337.6h360" stroke="#5e5e5e" stroke-width="3" fill="none"/><use xlink:href="#b" transform="matrix(1,0,0,1,-412,308) translate(108.14999999999999 14.6)"/><use xlink:href="#c" transform="matrix(1,0,0,1,-408,345.6) translate(151.21477666666667 24.86112)"/><use xlink:href="#d" transform="matrix(1,0,0,1,-408,345.6) translate(185.505 47.91664)"/><use xlink:href="#e" transform="matrix(1,0,0,1,-408,345.6) translate(109.36036055555554 69.96112000000001)"/><use xlink:href="#f" transform="matrix(1,0,0,1,-408,345.6) translate(147.3308172222222 69.96112000000001)"/><use xlink:href="#g" transform="matrix(1,0,0,1,-408,345.6) translate(174.49137277777777 69.96112000000001)"/><path d="M-420-1000a6 6 0 0 1 6-6h348a6 6 0 0 1 6 6v340a6 6 0 0 1-6 6h-348a6 6 0 0 1-6-6z" stroke="#5e5e5e" stroke-width="3" fill="#fff"/><path d="M-420-968.4h360" stroke="#5e5e5e" stroke-width="3" fill="none"/><use xlink:href="#h" transform="matrix(1,0,0,1,-412,-998) translate(136.075 14.6)"/><use xlink:href="#i" transform="matrix(1,0,0,1,-408,-960.4) translate(154.41972222222222 25.12775999999998)"/><use xlink:href="#j" transform="matrix(1,0,0,1,-408,-960.4) translate(165.28394444444444 25.12775999999998)"/><use xlink:href="#i" transform="matrix(1,0,0,1,-408,-960.4) translate(141.98018777777776 51.02775999999999)"/><use xlink:href="#k" transform="matrix(1,0,0,1,-408,-960.4) translate(152.84440999999998 51.02775999999999)"/><use xlink:href="#l" transform="matrix(1,0,0,1,-408,-960.4) translate(122.22707666666666 76.92775999999998)"/><use xlink:href="#m" transform="matrix(1,0,0,1,-408,-960.4) translate(145.43696555555556 76.92775999999998)"/><use xlink:href="#n" transform="matrix(1,0,0,1,-408,-960.4) translate(120.27890388888888 100.39447999999999)"/><use xlink:href="#o" transform="matrix(1,0,0,1,-408,-960.4) translate(122.99495944444445 126.29448)"/><use xlink:href="#p" transform="matrix(1,0,0,1,-408,-960.4) translate(128.42707055555556 126.29448)"/><use xlink:href="#i" transform="matrix(1,0,0,1,-408,-960.4) translate(145.78266555555555 152.19448)"/><use xlink:href="#q" transform="matrix(1,0,0,1,-408,-960.4) translate(156.64688777777778 152.19448)"/><use xlink:href="#o" transform="matrix(1,0,0,1,-408,-960.4) translate(131.495 178.09447999999998)"/><use xlink:href="#r" transform="matrix(1,0,0,1,-408,-960.4) translate(136.92711111111112 178.09447999999998)"/><use xlink:href="#s" transform="matrix(1,0,0,1,-408,-960.4) translate(203.505 178.09447999999998)"/><use xlink:href="#o" transform="matrix(1,0,0,1,-408,-960.4) translate(119.1653211111111 203.99448)"/><use xlink:href="#t" transform="matrix(1,0,0,1,-408,-960.4) translate(124.59743222222221 203.99448)"/><use xlink:href="#o" transform="matrix(1,0,0,1,-408,-960.4) translate(140.9209261111111 229.89448)"/><use xlink:href="#u" transform="matrix(1,0,0,1,-408,-960.4) translate(146.3530372222222 229.89448)"/><use xlink:href="#o" transform="matrix(1,0,0,1,-408,-960.4) translate(129.45917166666666 255.79448000000002)"/><use xlink:href="#v" transform="matrix(1,0,0,1,-408,-960.4) translate(134.89128277777777 255.79448000000002)"/><use xlink:href="#o" transform="matrix(1,0,0,1,-408,-960.4) translate(106.64430499999999 281.69448)"/><use xlink:href="#w" transform="matrix(1,0,0,1,-408,-960.4) translate(112.0764161111111 281.69448)"/><use xlink:href="#x" transform="matrix(1,0,0,1,-408,-960.4) translate(150.04687277777776 281.69448)"/><use xlink:href="#y" transform="matrix(1,0,0,1,-408,-960.4) translate(177.20742833333333 281.69448)"/><path d="M1400-1039.02a6 6 0 0 1 6-6h348a6 6 0 0 1 6 6v444a6 6 0 0 1-6 6h-348a6 6 0 0 1-6-6z" stroke="#5e5e5e" stroke-width="3" fill="#fff"/><path d="M1400-1007.42h360" stroke="#5e5e5e" stroke-width="3" fill="none"/><use xlink:href="#z" transform="matrix(1,0,0,1,1408,-1037.0239105637909) translate(123.14999999999999 14.6)"/><use xlink:href="#A" transform="matrix(1,0,0,1,1412,-999.4239105637909) translate(159.85183333333333 25.01111999999999)"/><use xlink:href="#d" transform="matrix(1,0,0,1,1412,-999.4239105637909) translate(185.505 48.06663999999999)"/><use xlink:href="#B" transform="matrix(1,0,0,1,1412,-999.4239105637909) translate(147.41229888888887 70.11112)"/><use xlink:href="#d" transform="matrix(1,0,0,1,1412,-999.4239105637909) translate(185.505 93.16664)"/><use xlink:href="#C" transform="matrix(1,0,0,1,1412,-999.4239105637909) translate(133.8320211111111 115.21112000000001)"/><use xlink:href="#d" transform="matrix(1,0,0,1,1412,-999.4239105637909) translate(185.505 138.26664000000002)"/><use xlink:href="#c" transform="matrix(1,0,0,1,1412,-999.4239105637909) translate(151.21477666666667 160.31112000000002)"/><use xlink:href="#d" transform="matrix(1,0,0,1,1412,-999.4239105637909) translate(185.505 183.36664000000002)"/><use xlink:href="#D" transform="matrix(1,0,0,1,1412,-999.4239105637909) translate(145.72834444444445 205.41112000000004)"/><use xlink:href="#d" transform="matrix(1,0,0,1,1412,-999.4239105637909) translate(185.505 228.46664000000004)"/><use xlink:href="#E" transform="matrix(1,0,0,1,1412,-999.4239105637909) translate(121.88137666666665 250.51112000000006)"/><use xlink:href="#d" transform="matrix(1,0,0,1,1412,-999.4239105637909) translate(185.505 273.56664000000006)"/><use xlink:href="#F" transform="matrix(1,0,0,1,1412,-999.4239105637909) translate(143.63698166666666 295.6111200000001)"/><use xlink:href="#d" transform="matrix(1,0,0,1,1412,-999.4239105637909) translate(185.505 318.6666400000001)"/><use xlink:href="#G" transform="matrix(1,0,0,1,1412,-999.4239105637909) translate(132.17522722222222 340.71112)"/><use xlink:href="#d" transform="matrix(1,0,0,1,1412,-999.4239105637909) translate(185.505 363.76664)"/><use xlink:href="#e" transform="matrix(1,0,0,1,1412,-999.4239105637909) translate(109.36036055555554 385.81112)"/><use xlink:href="#f" transform="matrix(1,0,0,1,1412,-999.4239105637909) translate(147.3308172222222 385.81112)"/><use xlink:href="#g" transform="matrix(1,0,0,1,1412,-999.4239105637909) translate(174.49137277777777 385.81112)"/><path d="M-420-614a6 6 0 0 1 6-6h348a6 6 0 0 1 6 6v579a6 6 0 0 1-6 6h-348a6 6 0 0 1-6-6z" stroke="#5e5e5e" stroke-width="3" fill="#fff"/><path d="M-420-582.4h360" stroke="#5e5e5e" stroke-width="3" fill="none"/><use xlink:href="#H" transform="matrix(1,0,0,1,-412,-612) translate(142.075 14.6)"/><use xlink:href="#I" transform="matrix(1,0,0,1,-408,-574.4) translate(159.85183333333333 24.861120000000042)"/><use xlink:href="#J" transform="matrix(1,0,0,1,-408,-574.4) translate(185.505 47.916640000000044)"/><use xlink:href="#K" transform="matrix(1,0,0,1,-408,-574.4) translate(147.41229888888887 69.96112000000005)"/><use xlink:href="#J" transform="matrix(1,0,0,1,-408,-574.4) translate(185.505 93.01664000000005)"/><use xlink:href="#L" transform="matrix(1,0,0,1,-408,-574.4) translate(133.8320211111111 115.06112000000006)"/><use xlink:href="#J" transform="matrix(1,0,0,1,-408,-574.4) translate(185.505 138.11664000000007)"/><use xlink:href="#M" transform="matrix(1,0,0,1,-408,-574.4) translate(151.21477666666667 160.16112000000004)"/><use xlink:href="#J" transform="matrix(1,0,0,1,-408,-574.4) translate(185.505 183.21664000000007)"/><use xlink:href="#N" transform="matrix(1,0,0,1,-408,-574.4) translate(145.72834444444445 205.26112000000006)"/><use xlink:href="#J" transform="matrix(1,0,0,1,-408,-574.4) translate(185.505 228.3166400000001)"/><use xlink:href="#O" transform="matrix(1,0,0,1,-408,-574.4) translate(121.88137666666665 250.36112000000008)"/><use xlink:href="#J" transform="matrix(1,0,0,1,-408,-574.4) translate(185.505 273.4166400000001)"/><use xlink:href="#P" transform="matrix(1,0,0,1,-408,-574.4) translate(143.63698166666666 295.4611200000001)"/><use xlink:href="#J" transform="matrix(1,0,0,1,-408,-574.4) translate(185.505 318.5166400000001)"/><use xlink:href="#Q" transform="matrix(1,0,0,1,-408,-574.4) translate(132.17522722222222 340.5611200000001)"/><use xlink:href="#J" transform="matrix(1,0,0,1,-408,-574.4) translate(185.505 363.6166400000001)"/><use xlink:href="#R" transform="matrix(1,0,0,1,-408,-574.4) translate(87.11586555555554 385.66112000000004)"/><use xlink:href="#x" transform="matrix(1,0,0,1,-408,-574.4) translate(133.77769999999998 385.66112000000004)"/><use xlink:href="#S" transform="matrix(1,0,0,1,-408,-574.4) translate(160.93825555555554 385.66112000000004)"/><use xlink:href="#J" transform="matrix(1,0,0,1,-408,-574.4) translate(185.505 408.71664000000004)"/><use xlink:href="#T" transform="matrix(1,0,0,1,-408,-574.4) translate(110.47394333333332 430.76112)"/><use xlink:href="#J" transform="matrix(1,0,0,1,-408,-574.4) translate(185.505 453.81664)"/><use xlink:href="#U" transform="matrix(1,0,0,1,-408,-574.4) translate(124.10854222222221 475.86111999999997)"/><use xlink:href="#J" transform="matrix(1,0,0,1,-408,-574.4) translate(185.505 498.91664)"/><use xlink:href="#V" transform="matrix(1,0,0,1,-408,-574.4) translate(109.36036055555554 520.9611199999999)"/><use xlink:href="#x" transform="matrix(1,0,0,1,-408,-574.4) translate(147.3308172222222 520.9611199999999)"/><use xlink:href="#y" transform="matrix(1,0,0,1,-408,-574.4) translate(174.49137277777777 520.9611199999999)"/><path d="M720-194a6 6 0 0 1 6-6h408a6 6 0 0 1 6 6v482a6 6 0 0 1-6 6H726a6 6 0 0 1-6-6z" stroke="#5e5e5e" stroke-width="3" fill="#fff"/><path d="M720-162.4h420" stroke="#5e5e5e" stroke-width="3" fill="none"/><use xlink:href="#W" transform="matrix(1,0,0,1,728,-192) translate(174.05 14.6)"/><use xlink:href="#X" transform="matrix(1,0,0,1,732,-154.4) translate(198 43.52120953506925)"/><use xlink:href="#J" transform="matrix(1,0,0,1,732,-154.4) translate(215.505 64.71207046493078)"/><use xlink:href="#Y" transform="matrix(1,0,0,1,732,-154.4) translate(161.495 86.75655046493078)"/><use xlink:href="#Z" transform="matrix(1,0,0,1,732,-154.4) translate(177.79133333333334 86.75655046493078)"/><use xlink:href="#s" transform="matrix(1,0,0,1,732,-154.4) translate(233.505 86.75655046493078)"/><use xlink:href="#L" transform="matrix(1,0,0,1,732,-154.4) translate(163.8320211111111 112.65655046493079)"/><use xlink:href="#J" transform="matrix(1,0,0,1,732,-154.4) translate(215.505 135.7120704649308)"/><use xlink:href="#M" transform="matrix(1,0,0,1,732,-154.4) translate(181.21477666666667 157.7565504649308)"/><use xlink:href="#J" transform="matrix(1,0,0,1,732,-154.4) translate(215.505 180.8120704649308)"/><use xlink:href="#N" transform="matrix(1,0,0,1,732,-154.4) translate(175.72834444444445 202.85655046493076)"/><use xlink:href="#J" transform="matrix(1,0,0,1,732,-154.4) translate(215.505 225.9120704649308)"/><use xlink:href="#O" transform="matrix(1,0,0,1,732,-154.4) translate(151.88137666666665 247.95655046493079)"/><use xlink:href="#J" transform="matrix(1,0,0,1,732,-154.4) translate(215.505 271.0120704649308)"/><use xlink:href="#P" transform="matrix(1,0,0,1,732,-154.4) translate(173.63698166666666 293.0565504649308)"/><use xlink:href="#J" transform="matrix(1,0,0,1,732,-154.4) translate(215.505 316.1120704649308)"/><use xlink:href="#Q" transform="matrix(1,0,0,1,732,-154.4) translate(162.17522722222222 338.1565504649308)"/><use xlink:href="#J" transform="matrix(1,0,0,1,732,-154.4) translate(215.505 361.2120704649308)"/><use xlink:href="#R" transform="matrix(1,0,0,1,732,-154.4) translate(117.11586555555554 383.25655046493074)"/><use xlink:href="#x" transform="matrix(1,0,0,1,732,-154.4) translate(163.77769999999998 383.25655046493074)"/><use xlink:href="#S" transform="matrix(1,0,0,1,732,-154.4) translate(190.93825555555554 383.25655046493074)"/><use xlink:href="#aa" transform="matrix(1,0,0,1,732,-154.4) translate(157.55555555555557 403.8787904649308)"/><path d="M140-20h240v60H140z" fill="none"/><g><use xlink:href="#ab" transform="matrix(1,0,0,1,140,-20) translate(78.67283950617283 34.44444444444444)"/></g><path d="M620-953a6 6 0 0 1 6-6h348a6 6 0 0 1 6 6v246a6 6 0 0 1-6 6H626a6 6 0 0 1-6-6z" stroke="#5e5e5e" stroke-width="3" fill="#fff"/><path d="M620-921.4h360" stroke="#5e5e5e" stroke-width="3" fill="none"/><g><use xlink:href="#ac" transform="matrix(1,0,0,1,628,-951) translate(118.67499999999998 14.6)"/></g><g><use xlink:href="#ad" transform="matrix(1,0,0,1,632,-913.4) translate(160.422205 15.761120000000005)"/><use xlink:href="#ae" transform="matrix(1,0,0,1,632,-913.4) translate(91.46155444444443 41.66112000000001)"/><use xlink:href="#af" transform="matrix(1,0,0,1,632,-913.4) translate(108.30109888888887 67.56112000000002)"/><use xlink:href="#ag" transform="matrix(1,0,0,1,632,-913.4) translate(177.7778 67.56112000000002)"/><use xlink:href="#ah" transform="matrix(1,0,0,1,632,-913.4) translate(117.59000888888889 93.46112000000001)"/><use xlink:href="#ai" transform="matrix(1,0,0,1,632,-913.4) translate(105.01467166666666 119.36112000000001)"/><use xlink:href="#aj" transform="matrix(1,0,0,1,632,-913.4) translate(125.68385444444444 145.26112)"/><use xlink:href="#ak" transform="matrix(1,0,0,1,632,-913.4) translate(168 171.16111999999998)"/><use xlink:href="#al" transform="matrix(1,0,0,1,632,-913.4) translate(168 197.06112000000002)"/></g><path d="M-57.54-830h657.57" stroke="#5e5e5e" stroke-width="2" fill="none"/><path d="M-57.5-829h-1.04v-2h1.03z" stroke="#5e5e5e" stroke-width=".05" fill="#5e5e5e"/><path d="M615.3-830l-14.27 4.64v-9.28z" stroke="#5e5e5e" stroke-width="2" fill="#5e5e5e"/><path d="M40-880h240v60H40z" fill="none"/><g><use xlink:href="#a" transform="matrix(1,0,0,1,40,-880) translate(94.75308641975309 34.44444444444444)"/></g><path d="M-57.54-324.5H794a6 6 0 0 0 6-6v-350.53" stroke="#5e5e5e" stroke-width="2" fill="none"/><path d="M-57.5-323.5h-1.04v-2h1.03z" stroke="#5e5e5e" stroke-width=".05" fill="#5e5e5e"/><path d="M800-696.3l4.64 14.27h-9.28z" stroke="#5e5e5e" stroke-width="2" fill="#5e5e5e"/><path d="M640-480.5h240v60H640z" fill="none"/><g><use xlink:href="#am" transform="matrix(1,0,0,1,640,-480.5) translate(94.96913580246914 34.44444444444444)"/></g><path d="M999.97-817.02h397.57" stroke="#5e5e5e" stroke-width="2" fill="none"/><path d="M984.7-817.02l14.27-4.64v9.27z" stroke="#5e5e5e" stroke-width="2" fill="#5e5e5e"/><path d="M1398.54-816.02h-1.03v-2h1.04z" stroke="#5e5e5e" stroke-width=".05" fill="#5e5e5e"/><path d="M40 380h240v60H40z" fill="none"/><g><use xlink:href="#a" transform="matrix(1,0,0,1,40,380) translate(94.75308641975309 34.44444444444444)"/></g><path d="M-57.54-324.5H924a6 6 0 0 1 6 6v98.53" stroke="#5e5e5e" stroke-width="2" fill="none"/><path d="M-57.5-323.5h-1.04v-2h1.03z" stroke="#5e5e5e" stroke-width=".05" fill="#5e5e5e"/><path d="M930-204.7l-4.64-14.27h9.28z" stroke="#5e5e5e" stroke-width="2" fill="#5e5e5e"/><path d="M880-320h240v60H880z" fill="none"/><g><use xlink:href="#an" transform="matrix(1,0,0,1,880,-320) translate(84.29012345679013 21.111111111111114)"/><use xlink:href="#ao" transform="matrix(1,0,0,1,880,-320) translate(120 47.777777777777786)"/></g><path d="M-100-900h240v60h-240z" fill="none"/><g><use xlink:href="#ap" transform="matrix(1,0,0,1,-100,-900) translate(104.5679012345679 34.44444444444444)"/></g><path d="M460-880h240v60H460z" fill="none"/><g><use xlink:href="#aq" transform="matrix(1,0,0,1,460,-880) translate(104.5679012345679 21.111111111111114)"/><use xlink:href="#ao" transform="matrix(1,0,0,1,460,-880) translate(120 47.777777777777786)"/></g><path d="M900-860h240v60H900z" fill="none"/><g><use xlink:href="#ar" transform="matrix(1,0,0,1,900,-860) translate(104.5679012345679 34.44444444444444)"/></g><path d="M1240-860h240v60h-240z" fill="none"/><g><use xlink:href="#ap" transform="matrix(1,0,0,1,1240,-860) translate(104.5679012345679 34.44444444444444)"/></g><path d="M-120-380h240v60h-240z" fill="none"/><g><use xlink:href="#ap" transform="matrix(1,0,0,1,-120,-380) translate(104.5679012345679 34.44444444444444)"/></g><path d="M840-260h240v60H840z" fill="none"/><g><use xlink:href="#ap" transform="matrix(1,0,0,1,840,-260) translate(104.5679012345679 34.44444444444444)"/></g><path d="M-240-26.54V41a6 6 0 0 0 6 6h934.03" stroke="#5e5e5e" stroke-width="2" fill="none"/><path d="M-239-26.5h-2v-1.04h2z" stroke="#5e5e5e" stroke-width=".05" fill="#5e5e5e"/><path d="M715.3 47l-14.26 4.64v-9.28z" stroke="#5e5e5e" stroke-width="2" fill="#5e5e5e"/><path d="M-300 5h240v60h-240z" fill="none"/><g><use xlink:href="#ap" transform="matrix(1,0,0,1,-300,5) translate(104.5679012345679 34.44444444444444)"/></g><path d="M-57.54 370H924a6 6 0 0 0 6-6v-50.03" stroke="#5e5e5e" stroke-width="2" fill="none"/><path d="M-57.5 371h-1.04v-2h1.03z" stroke="#5e5e5e" stroke-width=".05" fill="#5e5e5e"/><path d="M930 298.7l4.64 14.27h-9.28z" stroke="#5e5e5e" stroke-width="2" fill="#5e5e5e"/><path d="M520 0h240v60H520z" fill="none"/><g><use xlink:href="#ap" transform="matrix(1,0,0,1,520,0) translate(104.5679012345679 34.44444444444444)"/></g><path d="M-140 440h240v60h-240z" fill="none"/><g><use xlink:href="#ap" transform="matrix(1,0,0,1,-140,440) translate(104.5679012345679 34.44444444444444)"/></g><path d="M865.25 312.3h240v60h-240z" fill="none"/><g><use xlink:href="#ar" transform="matrix(1,0,0,1,865.2498310535439,312.314333570004) translate(104.5679012345679 34.44444444444444)"/></g><path d="M-57.5-727.92H324a6 6 0 0 1 6 6v607.48a6 6 0 0 0 6 6h364" stroke="#5e5e5e" stroke-width="2" fill="none"/><path d="M-57.5-726.92h-1v-2h1z" stroke="#5e5e5e" stroke-width=".05" fill="#5e5e5e"/><path d="M715.28-108.44L701-103.8v-9.27z" stroke="#5e5e5e" stroke-width="2" fill="#5e5e5e"/><path d="M-120-780h240v60h-240z" fill="none"/><g><use xlink:href="#ap" transform="matrix(1,0,0,1,-120,-780) translate(104.5679012345679 34.44444444444444)"/></g><path d="M500-180h240v60H500z" fill="none"/><g><use xlink:href="#ap" transform="matrix(1,0,0,1,500,-180) translate(104.5679012345679 34.44444444444444)"/></g><path d="M1580-586.56V41a6 6 0 0 1-6 6h-414.03" stroke="#5e5e5e" stroke-width="2" fill="none"/><path d="M1581-586.54h-2v-1.02h2z" stroke="#5e5e5e" stroke-width=".05" fill="#5e5e5e"/><path d="M1144.7 47l14.26-4.64v9.28z" stroke="#5e5e5e" stroke-width="2" fill="#5e5e5e"/><path d="M1400-589.02h240v60h-240z" fill="none"/><g><use xlink:href="#ap" transform="matrix(1,0,0,1,1400,-589.0239105637909) translate(104.5679012345679 34.44444444444444)"/></g><path d="M1080-20h240v60h-240z" fill="none"/><g><use xlink:href="#ap" transform="matrix(1,0,0,1,1080,-20) translate(104.5679012345679 34.44444444444444)"/></g><path d="M1399.57-277.77h240v60h-240z" fill="none"/><g><use xlink:href="#ab" transform="matrix(1,0,0,1,1399.565838732275,-277.77203181256766) translate(78.67283950617283 34.44444444444444)"/></g><path d="M260-460h240v60H260z" fill="none"/><g><use xlink:href="#ab" transform="matrix(1,0,0,1,260,-460) translate(78.67283950617283 34.44444444444444)"/></g><defs><path fill="#333" d="M96-169c-40 0-48 33-48 73s9 75 48 75c24 0 41-14 43-38l32 2c-6 37-31 61-74 61-59 0-76-41-82-99-10-93 101-131 147-64 4 7 5 14 7 22l-32 3c-4-21-16-35-41-35" id="as"/><path fill="#333" d="M114-163C36-179 61-72 57 0H25l-1-190h30c1 12-1 29 2 39 6-27 23-49 58-41v29" id="at"/><path fill="#333" d="M100-194c63 0 86 42 84 106H49c0 40 14 67 53 68 26 1 43-12 49-29l28 8c-11 28-37 45-77 45C44 4 14-33 15-96c1-61 26-98 85-98zm52 81c6-60-76-77-97-28-3 7-6 17-6 28h103" id="au"/><g id="a"><use transform="matrix(0.06172839506172839,0,0,0.06172839506172839,0,0)" xlink:href="#as"/><use transform="matrix(0.06172839506172839,0,0,0.06172839506172839,11.11111111111111,0)" xlink:href="#at"/><use transform="matrix(0.06172839506172839,0,0,0.06172839506172839,18.45679012345679,0)" xlink:href="#au"/><use transform="matrix(0.06172839506172839,0,0,0.06172839506172839,30.80246913580247,0)" xlink:href="#au"/><use transform="matrix(0.06172839506172839,0,0,0.06172839506172839,43.148148148148145,0)" xlink:href="#at"/></g><path d="M199 0l-22-63H83L61 0H9l90-248h61L250 0h-51zm-33-102l-36-108c-10 38-24 72-36 108h72" id="av"/><path d="M88-194c31-1 46 15 58 34l-1-101h50l1 261h-48c-2-10 0-23-3-31C134-8 116 4 84 4 32 4 16-41 15-95c0-56 19-97 73-99zm17 164c33 0 40-30 41-66 1-37-9-64-41-64s-38 30-39 65c0 43 13 65 39 65" id="aw"/><path d="M220-157c-53 9-28 100-34 157h-49v-107c1-27-5-49-29-50C55-147 81-57 75 0H25l-1-190h47c2 12-1 28 3 38 10-53 101-56 108 0 13-22 24-43 59-42 82 1 51 116 57 194h-49v-107c-1-25-5-48-29-50" id="ax"/><path d="M25-224v-37h50v37H25zM25 0v-190h50V0H25" id="ay"/><path d="M135-194c87-1 58 113 63 194h-50c-7-57 23-157-34-157-59 0-34 97-39 157H25l-1-190h47c2 12-1 28 3 38 12-26 28-41 61-42" id="az"/><path d="M137-138c1-29-70-34-71-4 15 46 118 7 119 86 1 83-164 76-172 9l43-7c4 19 20 25 44 25 33 8 57-30 24-41C81-84 22-81 20-136c-2-80 154-74 161-7" id="aA"/><path d="M115-3C79 11 28 4 28-45v-112H4v-33h27l15-45h31v45h36v33H77v99c-1 23 16 31 38 25v30" id="aB"/><path d="M135-150c-39-12-60 13-60 57V0H25l-1-190h47c2 13-1 29 3 40 6-28 27-53 61-41v41" id="aC"/><path d="M133-34C117-15 103 5 69 4 32 3 11-16 11-54c-1-60 55-63 116-61 1-26-3-47-28-47-18 1-26 9-28 27l-52-2c7-38 36-58 82-57s74 22 75 68l1 82c-1 14 12 18 25 15v27c-30 8-71 5-69-32zm-48 3c29 0 43-24 42-57-32 0-66-3-65 30 0 17 8 27 23 27" id="aD"/><path d="M185-48c-13 30-37 53-82 52C43 2 14-33 14-96s30-98 90-98c62 0 83 45 84 108H66c0 31 8 55 39 56 18 0 30-7 34-22zm-45-69c5-46-57-63-70-21-2 6-4 13-4 21h74" id="aE"/><path d="M85 4C-2 5 27-109 22-190h50c7 57-23 150 33 157 60-5 35-97 40-157h50l1 190h-47c-2-12 1-28-3-38-12 25-28 42-61 42" id="aF"/><g id="b"><use transform="matrix(0.05,0,0,0.05,0,0)" xlink:href="#av"/><use transform="matrix(0.05,0,0,0.05,12.950000000000001,0)" xlink:href="#aw"/><use transform="matrix(0.05,0,0,0.05,23.900000000000002,0)" xlink:href="#ax"/><use transform="matrix(0.05,0,0,0.05,39.900000000000006,0)" xlink:href="#ay"/><use transform="matrix(0.05,0,0,0.05,44.900000000000006,0)" xlink:href="#az"/><use transform="matrix(0.05,0,0,0.05,55.85,0)" xlink:href="#ay"/><use transform="matrix(0.05,0,0,0.05,60.85,0)" xlink:href="#aA"/><use transform="matrix(0.05,0,0,0.05,70.85000000000001,0)" xlink:href="#aB"/><use transform="matrix(0.05,0,0,0.05,76.80000000000001,0)" xlink:href="#aC"/><use transform="matrix(0.05,0,0,0.05,83.80000000000001,0)" xlink:href="#aD"/><use transform="matrix(0.05,0,0,0.05,93.80000000000001,0)" xlink:href="#aB"/><use transform="matrix(0.05,0,0,0.05,99.75000000000001,0)" xlink:href="#aE"/><use transform="matrix(0.05,0,0,0.05,109.75,0)" xlink:href="#aF"/><use transform="matrix(0.05,0,0,0.05,120.7,0)" xlink:href="#aC"/></g><path d="M212-179c-10-28-35-45-73-45-59 0-87 40-87 99 0 60 29 101 89 101 43 0 62-24 78-52l27 14C228-24 195 4 139 4 59 4 22-46 18-125c-6-104 99-153 187-111 19 9 31 26 39 46" id="aG"/><path d="M33 0v-248h34V0H33" id="aH"/><path d="M190 0L58-211 59 0H30v-248h39L202-35l-2-213h31V0h-41" id="aI"/><g id="c"><use transform="matrix(0.05432111111111112,0,0,0.05432111111111112,0,0)" xlink:href="#aG"/><use transform="matrix(0.05432111111111112,0,0,0.05432111111111112,14.06916777777778,0)" xlink:href="#aH"/><use transform="matrix(0.05432111111111112,0,0,0.05432111111111112,19.50127888888889,0)" xlink:href="#aI"/></g><path d="M240 0l2-218c-23 76-54 145-80 218h-23L58-218 59 0H30v-248h44l77 211c21-75 51-140 76-211h43V0h-30" id="aJ"/><path d="M100-194c62-1 85 37 85 99 1 63-27 99-86 99S16-35 15-95c0-66 28-99 85-99zM99-20c44 1 53-31 53-75 0-43-8-75-51-75s-53 32-53 75 10 74 51 75" id="aK"/><path d="M59-47c-2 24 18 29 38 22v24C64 9 27 4 27-40v-127H5v-23h24l9-43h21v43h35v23H59v120" id="aL"/><g id="e"><use transform="matrix(0.05432111111111112,0,0,0.05432111111111112,0,0)" xlink:href="#aJ"/><use transform="matrix(0.05432111111111112,0,0,0.05432111111111112,16.242012222222225,0)" xlink:href="#aK"/><use transform="matrix(0.05432111111111112,0,0,0.05432111111111112,27.10623444444445,0)" xlink:href="#aL"/></g><path d="M85-194c31 0 48 13 60 33l-1-100h32l1 261h-30c-2-10 0-23-3-31C134-8 116 4 85 4 32 4 16-35 15-94c0-66 23-100 70-100zm9 24c-40 0-46 34-46 75 0 40 6 74 45 74 42 0 51-32 51-76 0-42-9-74-50-73" id="aM"/><path d="M100-194c63 0 86 42 84 106H49c0 40 14 67 53 68 26 1 43-12 49-29l28 8c-11 28-37 45-77 45C44 4 14-33 15-96c1-61 26-98 85-98zm52 81c6-60-76-77-97-28-3 7-6 17-6 28h103" id="aN"/><g id="f"><use transform="matrix(0.05432111111111112,0,0,0.05432111111111112,0,0)" xlink:href="#aM"/><use transform="matrix(0.05432111111111112,0,0,0.05432111111111112,10.864222222222224,0)" xlink:href="#aN"/></g><path d="M115-194c55 1 70 41 70 98S169 2 115 4C84 4 66-9 55-30l1 105H24l-1-265h31l2 30c10-21 28-34 59-34zm-8 174c40 0 45-34 45-75s-6-73-45-74c-42 0-51 32-51 76 0 43 10 73 51 73" id="aO"/><path d="M141-36C126-15 110 5 73 4 37 3 15-17 15-53c-1-64 63-63 125-63 3-35-9-54-41-54-24 1-41 7-42 31l-33-3c5-37 33-52 76-52 45 0 72 20 72 64v82c-1 20 7 32 28 27v20c-31 9-61-2-59-35zM48-53c0 20 12 33 32 33 41-3 63-29 60-74-43 2-92-5-92 41" id="aP"/><path d="M135-143c-3-34-86-38-87 0 15 53 115 12 119 90S17 21 10-45l28-5c4 36 97 45 98 0-10-56-113-15-118-90-4-57 82-63 122-42 12 7 21 19 24 35" id="aQ"/><g id="g"><use transform="matrix(0.05432111111111112,0,0,0.05432111111111112,0,0)" xlink:href="#aO"/><use transform="matrix(0.05432111111111112,0,0,0.05432111111111112,10.864222222222224,0)" xlink:href="#aP"/><use transform="matrix(0.05432111111111112,0,0,0.05432111111111112,21.72844444444445,0)" xlink:href="#aQ"/><use transform="matrix(0.05432111111111112,0,0,0.05432111111111112,31.506244444444448,0)" xlink:href="#aQ"/><use transform="matrix(0.05432111111111112,0,0,0.05432111111111112,41.28404444444445,0)" xlink:href="#aN"/></g><path d="M230 0l2-204L168 0h-37L68-204 70 0H24v-248h70l56 185 57-185h69V0h-46" id="aR"/><path d="M190-63c-7 42-38 67-86 67-59 0-84-38-90-98-12-110 154-137 174-36l-49 2c-2-19-15-32-35-32-30 0-35 28-38 64-6 74 65 87 74 30" id="aS"/><g id="h"><use transform="matrix(0.05,0,0,0.05,0,0)" xlink:href="#aR"/><use transform="matrix(0.05,0,0,0.05,14.950000000000001,0)" xlink:href="#aE"/><use transform="matrix(0.05,0,0,0.05,24.950000000000003,0)" xlink:href="#aw"/><use transform="matrix(0.05,0,0,0.05,35.900000000000006,0)" xlink:href="#aE"/><use transform="matrix(0.05,0,0,0.05,45.900000000000006,0)" xlink:href="#aS"/><use transform="matrix(0.05,0,0,0.05,55.900000000000006,0)" xlink:href="#ay"/><use transform="matrix(0.05,0,0,0.05,60.900000000000006,0)" xlink:href="#az"/></g><g id="j"><use transform="matrix(0.05432111111111112,0,0,0.05432111111111112,0,0)" xlink:href="#aH"/><use transform="matrix(0.05432111111111112,0,0,0.05432111111111112,5.432111111111112,0)" xlink:href="#aM"/></g><path d="M210-169c-67 3-38 105-44 169h-31v-121c0-29-5-50-35-48C34-165 62-65 56 0H25l-1-190h30c1 10-1 24 2 32 10-44 99-50 107 0 11-21 27-35 58-36 85-2 47 119 55 194h-31v-121c0-29-5-49-35-48" id="aT"/><g id="k"><use transform="matrix(0.05432111111111112,0,0,0.05432111111111112,0,0)" xlink:href="#aI"/><use transform="matrix(0.05432111111111112,0,0,0.05432111111111112,14.06916777777778,0)" xlink:href="#aK"/><use transform="matrix(0.05432111111111112,0,0,0.05432111111111112,24.933390000000003,0)" xlink:href="#aT"/></g><path d="M30-248c87 1 191-15 191 75 0 78-77 80-158 76V0H30v-248zm33 125c57 0 124 11 124-50 0-59-68-47-124-48v98" id="aU"/><path d="M114-163C36-179 61-72 57 0H25l-1-190h30c1 12-1 29 2 39 6-27 23-49 58-41v29" id="aV"/><path d="M100-194c63 0 86 42 84 106H49c0 40 14 67 53 68 26 1 43-12 49-29l28 8c-11 28-37 45-77 45C44 4 14-33 15-96c1-61 26-98 85-98zm52 81c6-60-76-77-97-28-3 7-6 17-6 28h103zm-74-98c8-23 27-35 38-54h36v5l-58 49H78" id="aW"/><path d="M117-194c89-4 53 116 60 194h-32v-121c0-31-8-49-39-48C34-167 62-67 57 0H25l-1-190h30c1 10-1 24 2 32 11-22 29-35 61-36" id="aX"/><g id="m"><use transform="matrix(0.05432111111111112,0,0,0.05432111111111112,0,0)" xlink:href="#aU"/><use transform="matrix(0.05432111111111112,0,0,0.05432111111111112,13.037066666666668,0)" xlink:href="#aV"/><use transform="matrix(0.05432111111111112,0,0,0.05432111111111112,19.50127888888889,0)" xlink:href="#aW"/><use transform="matrix(0.05432111111111112,0,0,0.05432111111111112,30.365501111111115,0)" xlink:href="#aX"/><use transform="matrix(0.05432111111111112,0,0,0.05432111111111112,41.22972333333334,0)" xlink:href="#aK"/><use transform="matrix(0.05432111111111112,0,0,0.05432111111111112,52.093945555555564,0)" xlink:href="#aT"/></g><path d="M140-251c81 0 123 46 123 126C263-46 219 4 140 4 59 4 17-45 17-125s42-126 123-126zm0 227c63 0 89-41 89-101s-29-99-89-99c-61 0-89 39-89 99S79-25 140-24" id="aY"/><path d="M177-190C167-65 218 103 67 71c-23-6-38-20-44-43l32-5c15 47 100 32 89-28v-30C133-14 115 1 83 1 29 1 15-40 15-95c0-56 16-97 71-98 29-1 48 16 59 35 1-10 0-23 2-32h30zM94-22c36 0 50-32 50-73 0-42-14-75-50-75-39 0-46 34-46 75s6 73 46 73" id="aZ"/><path d="M24-231v-30h32v30H24zM24 0v-190h32V0H24" id="ba"/><g id="n"><use transform="matrix(0.05432111111111112,0,0,0.05432111111111112,0,0)" xlink:href="#aY"/><use transform="matrix(0.05432111111111112,0,0,0.05432111111111112,15.209911111111113,0)" xlink:href="#aV"/><use transform="matrix(0.05432111111111112,0,0,0.05432111111111112,21.674123333333334,0)" xlink:href="#aZ"/><use transform="matrix(0.05432111111111112,0,0,0.05432111111111112,32.53834555555556,0)" xlink:href="#aP"/><use transform="matrix(0.05432111111111112,0,0,0.05432111111111112,43.40256777777778,0)" xlink:href="#aX"/><use transform="matrix(0.05432111111111112,0,0,0.05432111111111112,54.26679000000001,0)" xlink:href="#ba"/><use transform="matrix(0.05432111111111112,0,0,0.05432111111111112,58.55815777777779,0)" xlink:href="#aQ"/><use transform="matrix(0.05432111111111112,0,0,0.05432111111111112,68.3359577777778,0)" xlink:href="#aT"/><use transform="matrix(0.05432111111111112,0,0,0.05432111111111112,84.57797000000002,0)" xlink:href="#aN"/></g><path d="M185-189c-5-48-123-54-124 2 14 75 158 14 163 119 3 78-121 87-175 55-17-10-28-26-33-46l33-7c5 56 141 63 141-1 0-78-155-14-162-118-5-82 145-84 179-34 5 7 8 16 11 25" id="bb"/><path d="M96-169c-40 0-48 33-48 73s9 75 48 75c24 0 41-14 43-38l32 2c-6 37-31 61-74 61-59 0-76-41-82-99-10-93 101-131 147-64 4 7 5 14 7 22l-32 3c-4-21-16-35-41-35" id="bc"/><path d="M24 0v-261h32V0H24" id="bd"/><g id="p"><use transform="matrix(0.05432111111111112,0,0,0.05432111111111112,0,0)" xlink:href="#bb"/><use transform="matrix(0.05432111111111112,0,0,0.05432111111111112,13.037066666666668,0)" xlink:href="#aO"/><use transform="matrix(0.05432111111111112,0,0,0.05432111111111112,23.901288888888892,0)" xlink:href="#aW"/><use transform="matrix(0.05432111111111112,0,0,0.05432111111111112,34.76551111111112,0)" xlink:href="#bc"/><use transform="matrix(0.05432111111111112,0,0,0.05432111111111112,44.543311111111116,0)" xlink:href="#ba"/><use transform="matrix(0.05432111111111112,0,0,0.05432111111111112,48.834678888888895,0)" xlink:href="#aP"/><use transform="matrix(0.05432111111111112,0,0,0.05432111111111112,59.69890111111112,0)" xlink:href="#bd"/><use transform="matrix(0.05432111111111112,0,0,0.05432111111111112,63.9902688888889,0)" xlink:href="#ba"/><use transform="matrix(0.05432111111111112,0,0,0.05432111111111112,68.28163666666667,0)" xlink:href="#aL"/><use transform="matrix(0.05432111111111112,0,0,0.05432111111111112,73.71374777777778,0)" xlink:href="#aW"/></g><g id="q"><use transform="matrix(0.05432111111111112,0,0,0.05432111111111112,0,0)" xlink:href="#aG"/><use transform="matrix(0.05432111111111112,0,0,0.05432111111111112,14.06916777777778,0)" xlink:href="#aH"/><use transform="matrix(0.05432111111111112,0,0,0.05432111111111112,19.50127888888889,0)" xlink:href="#aI"/></g><path d="M141 0L90-78 38 0H4l68-98-65-92h35l48 74 47-74h35l-64 92 68 98h-35" id="be"/><g id="r"><use transform="matrix(0.05432111111111112,0,0,0.05432111111111112,0,0)" xlink:href="#bb"/><use transform="matrix(0.05432111111111112,0,0,0.05432111111111112,13.037066666666668,0)" xlink:href="#aN"/><use transform="matrix(0.05432111111111112,0,0,0.05432111111111112,23.901288888888892,0)" xlink:href="#be"/></g><path d="M127-220V0H93v-220H8v-28h204v28h-85" id="bf"/><path d="M106-169C34-169 62-67 57 0H25v-261h32l-1 103c12-21 28-36 61-36 89 0 53 116 60 194h-32v-121c2-32-8-49-39-48" id="bg"/><g id="t"><use transform="matrix(0.05432111111111112,0,0,0.05432111111111112,0,0)" xlink:href="#bf"/><use transform="matrix(0.05432111111111112,0,0,0.05432111111111112,11.896323333333335,0)" xlink:href="#aW"/><use transform="matrix(0.05432111111111112,0,0,0.05432111111111112,22.76054555555556,0)" xlink:href="#bd"/><use transform="matrix(0.05432111111111112,0,0,0.05432111111111112,27.05191333333334,0)" xlink:href="#aW"/><use transform="matrix(0.05432111111111112,0,0,0.05432111111111112,37.91613555555556,0)" xlink:href="#aO"/><use transform="matrix(0.05432111111111112,0,0,0.05432111111111112,48.78035777777779,0)" xlink:href="#bg"/><use transform="matrix(0.05432111111111112,0,0,0.05432111111111112,59.644580000000005,0)" xlink:href="#aK"/><use transform="matrix(0.05432111111111112,0,0,0.05432111111111112,70.50880222222224,0)" xlink:href="#aX"/><use transform="matrix(0.05432111111111112,0,0,0.05432111111111112,81.37302444444447,0)" xlink:href="#aN"/></g><path d="M30 0v-248h187v28H63v79h144v27H63v87h162V0H30" id="bh"/><g id="u"><use transform="matrix(0.05432111111111112,0,0,0.05432111111111112,0,0)" xlink:href="#bh"/><use transform="matrix(0.05432111111111112,0,0,0.05432111111111112,13.037066666666668,0)" xlink:href="#aT"/><use transform="matrix(0.05432111111111112,0,0,0.05432111111111112,29.279078888888893,0)" xlink:href="#aP"/><use transform="matrix(0.05432111111111112,0,0,0.05432111111111112,40.143301111111114,0)" xlink:href="#ba"/><use transform="matrix(0.05432111111111112,0,0,0.05432111111111112,44.43466888888889,0)" xlink:href="#bd"/></g><path d="M205 0l-28-72H64L36 0H1l101-248h38L239 0h-34zm-38-99l-47-123c-12 45-31 82-46 123h93" id="bi"/><g id="v"><use transform="matrix(0.05432111111111112,0,0,0.05432111111111112,0,0)" xlink:href="#bi"/><use transform="matrix(0.05432111111111112,0,0,0.05432111111111112,13.037066666666668,0)" xlink:href="#aM"/><use transform="matrix(0.05432111111111112,0,0,0.05432111111111112,23.901288888888892,0)" xlink:href="#aV"/><use transform="matrix(0.05432111111111112,0,0,0.05432111111111112,30.365501111111115,0)" xlink:href="#aN"/><use transform="matrix(0.05432111111111112,0,0,0.05432111111111112,41.22972333333334,0)" xlink:href="#aQ"/><use transform="matrix(0.05432111111111112,0,0,0.05432111111111112,51.00752333333334,0)" xlink:href="#aQ"/><use transform="matrix(0.05432111111111112,0,0,0.05432111111111112,60.785323333333345,0)" xlink:href="#aN"/></g><g id="w"><use transform="matrix(0.05432111111111112,0,0,0.05432111111111112,0,0)" xlink:href="#aJ"/><use transform="matrix(0.05432111111111112,0,0,0.05432111111111112,16.242012222222225,0)" xlink:href="#aK"/><use transform="matrix(0.05432111111111112,0,0,0.05432111111111112,27.10623444444445,0)" xlink:href="#aL"/></g><g id="x"><use transform="matrix(0.05432111111111112,0,0,0.05432111111111112,0,0)" xlink:href="#aM"/><use transform="matrix(0.05432111111111112,0,0,0.05432111111111112,10.864222222222224,0)" xlink:href="#aN"/></g><g id="y"><use transform="matrix(0.05432111111111112,0,0,0.05432111111111112,0,0)" xlink:href="#aO"/><use transform="matrix(0.05432111111111112,0,0,0.05432111111111112,10.864222222222224,0)" xlink:href="#aP"/><use transform="matrix(0.05432111111111112,0,0,0.05432111111111112,21.72844444444445,0)" xlink:href="#aQ"/><use transform="matrix(0.05432111111111112,0,0,0.05432111111111112,31.506244444444448,0)" xlink:href="#aQ"/><use transform="matrix(0.05432111111111112,0,0,0.05432111111111112,41.28404444444445,0)" xlink:href="#aN"/></g><path d="M240-174c0 40-23 61-54 70L253 0h-59l-57-94H76V0H24v-248c93 4 217-23 216 74zM76-134c48-2 112 12 112-38 0-48-66-32-112-35v73" id="bj"/><path d="M110-194c64 0 96 36 96 99 0 64-35 99-97 99-61 0-95-36-95-99 0-62 34-99 96-99zm-1 164c35 0 45-28 45-65 0-40-10-65-43-65-34 0-45 26-45 65 0 36 10 65 43 65" id="bk"/><path d="M25 0v-261h50V0H25" id="bl"/><path d="M195-6C206 82 75 100 31 46c-4-6-6-13-8-21l49-6c3 16 16 24 34 25 40 0 42-37 40-79-11 22-30 35-61 35-53 0-70-43-70-97 0-56 18-96 73-97 30 0 46 14 59 34l2-30h47zm-90-29c32 0 41-27 41-63 0-35-9-62-40-62-32 0-39 29-40 63 0 36 9 62 39 62" id="bm"/><g id="z"><use transform="matrix(0.05,0,0,0.05,0,0)" xlink:href="#bj"/><use transform="matrix(0.05,0,0,0.05,12.950000000000001,0)" xlink:href="#aD"/><use transform="matrix(0.05,0,0,0.05,22.950000000000003,0)" xlink:href="#aw"/><use transform="matrix(0.05,0,0,0.05,33.900000000000006,0)" xlink:href="#ay"/><use transform="matrix(0.05,0,0,0.05,38.900000000000006,0)" xlink:href="#bk"/><use transform="matrix(0.05,0,0,0.05,49.85000000000001,0)" xlink:href="#bl"/><use transform="matrix(0.05,0,0,0.05,54.85,0)" xlink:href="#bk"/><use transform="matrix(0.05,0,0,0.05,65.80000000000001,0)" xlink:href="#bm"/><use transform="matrix(0.05,0,0,0.05,76.75000000000001,0)" xlink:href="#aF"/><use transform="matrix(0.05,0,0,0.05,87.70000000000002,0)" xlink:href="#aE"/></g><g id="A"><use transform="matrix(0.05432111111111112,0,0,0.05432111111111112,0,0)" xlink:href="#aH"/><use transform="matrix(0.05432111111111112,0,0,0.05432111111111112,5.432111111111112,0)" xlink:href="#aM"/></g><g id="B"><use transform="matrix(0.05432111111111112,0,0,0.05432111111111112,0,0)" xlink:href="#aI"/><use transform="matrix(0.05432111111111112,0,0,0.05432111111111112,14.06916777777778,0)" xlink:href="#aK"/><use transform="matrix(0.05432111111111112,0,0,0.05432111111111112,24.933390000000003,0)" xlink:href="#aT"/></g><g id="C"><use transform="matrix(0.05432111111111112,0,0,0.05432111111111112,0,0)" xlink:href="#aU"/><use transform="matrix(0.05432111111111112,0,0,0.05432111111111112,13.037066666666668,0)" xlink:href="#aV"/><use transform="matrix(0.05432111111111112,0,0,0.05432111111111112,19.50127888888889,0)" xlink:href="#aW"/><use transform="matrix(0.05432111111111112,0,0,0.05432111111111112,30.365501111111115,0)" xlink:href="#aX"/><use transform="matrix(0.05432111111111112,0,0,0.05432111111111112,41.22972333333334,0)" xlink:href="#aK"/><use transform="matrix(0.05432111111111112,0,0,0.05432111111111112,52.093945555555564,0)" xlink:href="#aT"/></g><g id="D"><use transform="matrix(0.05432111111111112,0,0,0.05432111111111112,0,0)" xlink:href="#bb"/><use transform="matrix(0.05432111111111112,0,0,0.05432111111111112,13.037066666666668,0)" xlink:href="#aN"/><use transform="matrix(0.05432111111111112,0,0,0.05432111111111112,23.901288888888892,0)" xlink:href="#be"/><use transform="matrix(0.05432111111111112,0,0,0.05432111111111112,33.67908888888889,0)" xlink:href="#aN"/></g><g id="E"><use transform="matrix(0.05432111111111112,0,0,0.05432111111111112,0,0)" xlink:href="#bf"/><use transform="matrix(0.05432111111111112,0,0,0.05432111111111112,11.896323333333335,0)" xlink:href="#aW"/><use transform="matrix(0.05432111111111112,0,0,0.05432111111111112,22.76054555555556,0)" xlink:href="#bd"/><use transform="matrix(0.05432111111111112,0,0,0.05432111111111112,27.05191333333334,0)" xlink:href="#aW"/><use transform="matrix(0.05432111111111112,0,0,0.05432111111111112,37.91613555555556,0)" xlink:href="#aO"/><use transform="matrix(0.05432111111111112,0,0,0.05432111111111112,48.78035777777779,0)" xlink:href="#bg"/><use transform="matrix(0.05432111111111112,0,0,0.05432111111111112,59.644580000000005,0)" xlink:href="#aK"/><use transform="matrix(0.05432111111111112,0,0,0.05432111111111112,70.50880222222224,0)" xlink:href="#aX"/><use transform="matrix(0.05432111111111112,0,0,0.05432111111111112,81.37302444444447,0)" xlink:href="#aN"/></g><g id="F"><use transform="matrix(0.05432111111111112,0,0,0.05432111111111112,0,0)" xlink:href="#bh"/><use transform="matrix(0.05432111111111112,0,0,0.05432111111111112,13.037066666666668,0)" xlink:href="#aT"/><use transform="matrix(0.05432111111111112,0,0,0.05432111111111112,29.279078888888893,0)" xlink:href="#aP"/><use transform="matrix(0.05432111111111112,0,0,0.05432111111111112,40.143301111111114,0)" xlink:href="#ba"/><use transform="matrix(0.05432111111111112,0,0,0.05432111111111112,44.43466888888889,0)" xlink:href="#bd"/></g><g id="G"><use transform="matrix(0.05432111111111112,0,0,0.05432111111111112,0,0)" xlink:href="#bi"/><use transform="matrix(0.05432111111111112,0,0,0.05432111111111112,13.037066666666668,0)" xlink:href="#aM"/><use transform="matrix(0.05432111111111112,0,0,0.05432111111111112,23.901288888888892,0)" xlink:href="#aV"/><use transform="matrix(0.05432111111111112,0,0,0.05432111111111112,30.365501111111115,0)" xlink:href="#aN"/><use transform="matrix(0.05432111111111112,0,0,0.05432111111111112,41.22972333333334,0)" xlink:href="#aQ"/><use transform="matrix(0.05432111111111112,0,0,0.05432111111111112,51.00752333333334,0)" xlink:href="#aQ"/><use transform="matrix(0.05432111111111112,0,0,0.05432111111111112,60.785323333333345,0)" xlink:href="#aN"/></g><path d="M24-248c93 1 206-16 204 79-1 75-69 88-152 82V0H24v-248zm52 121c47 0 100 7 100-41 0-47-54-39-100-39v80" id="bn"/><g id="H"><use transform="matrix(0.05,0,0,0.05,0,0)" xlink:href="#bn"/><use transform="matrix(0.05,0,0,0.05,12,0)" xlink:href="#aD"/><use transform="matrix(0.05,0,0,0.05,22,0)" xlink:href="#aB"/><use transform="matrix(0.05,0,0,0.05,27.950000000000003,0)" xlink:href="#ay"/><use transform="matrix(0.05,0,0,0.05,32.95,0)" xlink:href="#aE"/><use transform="matrix(0.05,0,0,0.05,42.95,0)" xlink:href="#az"/><use transform="matrix(0.05,0,0,0.05,53.900000000000006,0)" xlink:href="#aB"/></g><g id="I"><use transform="matrix(0.05432111111111112,0,0,0.05432111111111112,0,0)" xlink:href="#aH"/><use transform="matrix(0.05432111111111112,0,0,0.05432111111111112,5.432111111111112,0)" xlink:href="#aM"/></g><g id="K"><use transform="matrix(0.05432111111111112,0,0,0.05432111111111112,0,0)" xlink:href="#aI"/><use transform="matrix(0.05432111111111112,0,0,0.05432111111111112,14.06916777777778,0)" xlink:href="#aK"/><use transform="matrix(0.05432111111111112,0,0,0.05432111111111112,24.933390000000003,0)" xlink:href="#aT"/></g><g id="L"><use transform="matrix(0.05432111111111112,0,0,0.05432111111111112,0,0)" xlink:href="#aU"/><use transform="matrix(0.05432111111111112,0,0,0.05432111111111112,13.037066666666668,0)" xlink:href="#aV"/><use transform="matrix(0.05432111111111112,0,0,0.05432111111111112,19.50127888888889,0)" xlink:href="#aW"/><use transform="matrix(0.05432111111111112,0,0,0.05432111111111112,30.365501111111115,0)" xlink:href="#aX"/><use transform="matrix(0.05432111111111112,0,0,0.05432111111111112,41.22972333333334,0)" xlink:href="#aK"/><use transform="matrix(0.05432111111111112,0,0,0.05432111111111112,52.093945555555564,0)" xlink:href="#aT"/></g><g id="M"><use transform="matrix(0.05432111111111112,0,0,0.05432111111111112,0,0)" xlink:href="#aG"/><use transform="matrix(0.05432111111111112,0,0,0.05432111111111112,14.06916777777778,0)" xlink:href="#aH"/><use transform="matrix(0.05432111111111112,0,0,0.05432111111111112,19.50127888888889,0)" xlink:href="#aI"/></g><g id="N"><use transform="matrix(0.05432111111111112,0,0,0.05432111111111112,0,0)" xlink:href="#bb"/><use transform="matrix(0.05432111111111112,0,0,0.05432111111111112,13.037066666666668,0)" xlink:href="#aN"/><use transform="matrix(0.05432111111111112,0,0,0.05432111111111112,23.901288888888892,0)" xlink:href="#be"/><use transform="matrix(0.05432111111111112,0,0,0.05432111111111112,33.67908888888889,0)" xlink:href="#aN"/></g><g id="O"><use transform="matrix(0.05432111111111112,0,0,0.05432111111111112,0,0)" xlink:href="#bf"/><use transform="matrix(0.05432111111111112,0,0,0.05432111111111112,11.896323333333335,0)" xlink:href="#aW"/><use transform="matrix(0.05432111111111112,0,0,0.05432111111111112,22.76054555555556,0)" xlink:href="#bd"/><use transform="matrix(0.05432111111111112,0,0,0.05432111111111112,27.05191333333334,0)" xlink:href="#aW"/><use transform="matrix(0.05432111111111112,0,0,0.05432111111111112,37.91613555555556,0)" xlink:href="#aO"/><use transform="matrix(0.05432111111111112,0,0,0.05432111111111112,48.78035777777779,0)" xlink:href="#bg"/><use transform="matrix(0.05432111111111112,0,0,0.05432111111111112,59.644580000000005,0)" xlink:href="#aK"/><use transform="matrix(0.05432111111111112,0,0,0.05432111111111112,70.50880222222224,0)" xlink:href="#aX"/><use transform="matrix(0.05432111111111112,0,0,0.05432111111111112,81.37302444444447,0)" xlink:href="#aN"/></g><g id="P"><use transform="matrix(0.05432111111111112,0,0,0.05432111111111112,0,0)" xlink:href="#bh"/><use transform="matrix(0.05432111111111112,0,0,0.05432111111111112,13.037066666666668,0)" xlink:href="#aT"/><use transform="matrix(0.05432111111111112,0,0,0.05432111111111112,29.279078888888893,0)" xlink:href="#aP"/><use transform="matrix(0.05432111111111112,0,0,0.05432111111111112,40.143301111111114,0)" xlink:href="#ba"/><use transform="matrix(0.05432111111111112,0,0,0.05432111111111112,44.43466888888889,0)" xlink:href="#bd"/></g><g id="Q"><use transform="matrix(0.05432111111111112,0,0,0.05432111111111112,0,0)" xlink:href="#bi"/><use transform="matrix(0.05432111111111112,0,0,0.05432111111111112,13.037066666666668,0)" xlink:href="#aM"/><use transform="matrix(0.05432111111111112,0,0,0.05432111111111112,23.901288888888892,0)" xlink:href="#aV"/><use transform="matrix(0.05432111111111112,0,0,0.05432111111111112,30.365501111111115,0)" xlink:href="#aN"/><use transform="matrix(0.05432111111111112,0,0,0.05432111111111112,41.22972333333334,0)" xlink:href="#aQ"/><use transform="matrix(0.05432111111111112,0,0,0.05432111111111112,51.00752333333334,0)" xlink:href="#aQ"/><use transform="matrix(0.05432111111111112,0,0,0.05432111111111112,60.785323333333345,0)" xlink:href="#aN"/></g><path d="M30-248c118-7 216 8 213 122C240-48 200 0 122 0H30v-248zM63-27c89 8 146-16 146-99s-60-101-146-95v194" id="bo"/><g id="R"><use transform="matrix(0.05432111111111112,0,0,0.05432111111111112,0,0)" xlink:href="#bo"/><use transform="matrix(0.05432111111111112,0,0,0.05432111111111112,14.06916777777778,0)" xlink:href="#aP"/><use transform="matrix(0.05432111111111112,0,0,0.05432111111111112,24.933390000000003,0)" xlink:href="#aL"/><use transform="matrix(0.05432111111111112,0,0,0.05432111111111112,30.365501111111115,0)" xlink:href="#aN"/></g><g id="S"><use transform="matrix(0.05432111111111112,0,0,0.05432111111111112,0,0)" xlink:href="#aX"/><use transform="matrix(0.05432111111111112,0,0,0.05432111111111112,10.864222222222224,0)" xlink:href="#aP"/><use transform="matrix(0.05432111111111112,0,0,0.05432111111111112,21.72844444444445,0)" xlink:href="#ba"/><use transform="matrix(0.05432111111111112,0,0,0.05432111111111112,26.019812222222228,0)" xlink:href="#aQ"/><use transform="matrix(0.05432111111111112,0,0,0.05432111111111112,35.79761222222223,0)" xlink:href="#aQ"/><use transform="matrix(0.05432111111111112,0,0,0.05432111111111112,45.575412222222226,0)" xlink:href="#aP"/><use transform="matrix(0.05432111111111112,0,0,0.05432111111111112,56.43963444444445,0)" xlink:href="#aX"/><use transform="matrix(0.05432111111111112,0,0,0.05432111111111112,67.30385666666668,0)" xlink:href="#bc"/><use transform="matrix(0.05432111111111112,0,0,0.05432111111111112,77.08165666666667,0)" xlink:href="#aN"/></g><path d="M233-177c-1 41-23 64-60 70L243 0h-38l-65-103H63V0H30v-248c88 3 205-21 203 71zM63-129c60-2 137 13 137-47 0-61-80-42-137-45v92" id="bp"/><path d="M9 0v-24l116-142H16v-24h144v24L44-24h123V0H9" id="bq"/><path d="M16-82v-28h88v28H16" id="br"/><path d="M108 0H70L1-190h34L89-25l56-165h34" id="bs"/><path d="M84 4C-5 8 30-112 23-190h32v120c0 31 7 50 39 49 72-2 45-101 50-169h31l1 190h-30c-1-10 1-25-2-33-11 22-28 36-60 37" id="bt"/><g id="T"><use transform="matrix(0.05432111111111112,0,0,0.05432111111111112,0,0)" xlink:href="#bp"/><use transform="matrix(0.05432111111111112,0,0,0.05432111111111112,14.06916777777778,0)" xlink:href="#aN"/><use transform="matrix(0.05432111111111112,0,0,0.05432111111111112,24.933390000000003,0)" xlink:href="#aX"/><use transform="matrix(0.05432111111111112,0,0,0.05432111111111112,35.79761222222223,0)" xlink:href="#aM"/><use transform="matrix(0.05432111111111112,0,0,0.05432111111111112,46.66183444444445,0)" xlink:href="#aN"/><use transform="matrix(0.05432111111111112,0,0,0.05432111111111112,57.526056666666676,0)" xlink:href="#bq"/><use transform="matrix(0.05432111111111112,0,0,0.05432111111111112,67.30385666666668,0)" xlink:href="#br"/><use transform="matrix(0.05432111111111112,0,0,0.05432111111111112,73.7680688888889,0)" xlink:href="#bs"/><use transform="matrix(0.05432111111111112,0,0,0.05432111111111112,83.5458688888889,0)" xlink:href="#aK"/><use transform="matrix(0.05432111111111112,0,0,0.05432111111111112,94.41009111111113,0)" xlink:href="#bt"/><use transform="matrix(0.05432111111111112,0,0,0.05432111111111112,105.27431333333335,0)" xlink:href="#aQ"/></g><path d="M197 0v-115H63V0H30v-248h33v105h134v-105h34V0h-34" id="bu"/><path d="M145-31C134-9 116 4 85 4 32 4 16-35 15-94c0-59 17-99 70-100 32-1 48 14 60 33 0-11-1-24 2-32h30l-1 268h-32zM93-21c41 0 51-33 51-76s-8-73-50-73c-40 0-46 35-46 75s5 74 45 74" id="bv"/><g id="U"><use transform="matrix(0.05432111111111112,0,0,0.05432111111111112,0,0)" xlink:href="#bu"/><use transform="matrix(0.05432111111111112,0,0,0.05432111111111112,14.06916777777778,0)" xlink:href="#ba"/><use transform="matrix(0.05432111111111112,0,0,0.05432111111111112,18.360535555555558,0)" xlink:href="#aQ"/><use transform="matrix(0.05432111111111112,0,0,0.05432111111111112,28.13833555555556,0)" xlink:href="#aL"/><use transform="matrix(0.05432111111111112,0,0,0.05432111111111112,33.57044666666667,0)" xlink:href="#aK"/><use transform="matrix(0.05432111111111112,0,0,0.05432111111111112,44.43466888888889,0)" xlink:href="#aV"/><use transform="matrix(0.05432111111111112,0,0,0.05432111111111112,50.898881111111116,0)" xlink:href="#ba"/><use transform="matrix(0.05432111111111112,0,0,0.05432111111111112,55.190248888888895,0)" xlink:href="#bv"/><use transform="matrix(0.05432111111111112,0,0,0.05432111111111112,66.05447111111113,0)" xlink:href="#bt"/><use transform="matrix(0.05432111111111112,0,0,0.05432111111111112,76.91869333333335,0)" xlink:href="#aN"/></g><g id="V"><use transform="matrix(0.05432111111111112,0,0,0.05432111111111112,0,0)" xlink:href="#aJ"/><use transform="matrix(0.05432111111111112,0,0,0.05432111111111112,16.242012222222225,0)" xlink:href="#aK"/><use transform="matrix(0.05432111111111112,0,0,0.05432111111111112,27.10623444444445,0)" xlink:href="#aL"/></g><path d="M121-226c-27-7-43 5-38 36h38v33H83V0H34v-157H6v-33h28c-9-59 32-81 87-68v32" id="bw"/><g id="W"><use transform="matrix(0.05,0,0,0.05,0,0)" xlink:href="#bn"/><use transform="matrix(0.05,0,0,0.05,12,0)" xlink:href="#aC"/><use transform="matrix(0.05,0,0,0.05,19,0)" xlink:href="#bk"/><use transform="matrix(0.05,0,0,0.05,29.950000000000003,0)" xlink:href="#bw"/><use transform="matrix(0.05,0,0,0.05,35.900000000000006,0)" xlink:href="#ay"/><use transform="matrix(0.05,0,0,0.05,40.900000000000006,0)" xlink:href="#bl"/><use transform="matrix(0.05,0,0,0.05,45.900000000000006,0)" xlink:href="#aE"/></g><g id="Z"><use transform="matrix(0.05432111111111112,0,0,0.05432111111111112,0,0)" xlink:href="#aI"/><use transform="matrix(0.05432111111111112,0,0,0.05432111111111112,14.06916777777778,0)" xlink:href="#aK"/><use transform="matrix(0.05432111111111112,0,0,0.05432111111111112,24.933390000000003,0)" xlink:href="#aT"/></g><g id="aa"><use transform="matrix(0.044444444444444446,0,0,0.044444444444444446,0,0)" xlink:href="#bi"/><use transform="matrix(0.044444444444444446,0,0,0.044444444444444446,10.666666666666668,0)" xlink:href="#aX"/><use transform="matrix(0.044444444444444446,0,0,0.044444444444444446,19.555555555555557,0)" xlink:href="#aL"/><use transform="matrix(0.044444444444444446,0,0,0.044444444444444446,24,0)" xlink:href="#aN"/><use transform="matrix(0.044444444444444446,0,0,0.044444444444444446,32.888888888888886,0)" xlink:href="#bc"/><use transform="matrix(0.044444444444444446,0,0,0.044444444444444446,40.888888888888886,0)" xlink:href="#aN"/><use transform="matrix(0.044444444444444446,0,0,0.044444444444444446,49.77777777777777,0)" xlink:href="#aM"/><use transform="matrix(0.044444444444444446,0,0,0.044444444444444446,58.66666666666666,0)" xlink:href="#aP"/><use transform="matrix(0.044444444444444446,0,0,0.044444444444444446,67.55555555555554,0)" xlink:href="#aX"/><use transform="matrix(0.044444444444444446,0,0,0.044444444444444446,76.44444444444443,0)" xlink:href="#aL"/></g><path fill="#333" d="M100-194c62-1 85 37 85 99 1 63-27 99-86 99S16-35 15-95c0-66 28-99 85-99zM99-20c44 1 53-31 53-75 0-43-8-75-51-75s-53 32-53 75 10 74 51 75" id="bx"/><path fill="#333" d="M117-194c89-4 53 116 60 194h-32v-121c0-31-8-49-39-48C34-167 62-67 57 0H25l-1-190h30c1 10-1 24 2 32 11-22 29-35 61-36" id="by"/><path fill="#333" d="M135-143c-3-34-86-38-87 0 15 53 115 12 119 90S17 21 10-45l28-5c4 36 97 45 98 0-10-56-113-15-118-90-4-57 82-63 122-42 12 7 21 19 24 35" id="bz"/><path fill="#333" d="M84 4C-5 8 30-112 23-190h32v120c0 31 7 50 39 49 72-2 45-101 50-169h31l1 190h-30c-1-10 1-25-2-33-11 22-28 36-60 37" id="bA"/><path fill="#333" d="M24 0v-261h32V0H24" id="bB"/><path fill="#333" d="M59-47c-2 24 18 29 38 22v24C64 9 27 4 27-40v-127H5v-23h24l9-43h21v43h35v23H59v120" id="bC"/><g id="ab"><use transform="matrix(0.06172839506172839,0,0,0.06172839506172839,0,0)" xlink:href="#as"/><use transform="matrix(0.06172839506172839,0,0,0.06172839506172839,11.11111111111111,0)" xlink:href="#bx"/><use transform="matrix(0.06172839506172839,0,0,0.06172839506172839,23.45679012345679,0)" xlink:href="#by"/><use transform="matrix(0.06172839506172839,0,0,0.06172839506172839,35.80246913580247,0)" xlink:href="#bz"/><use transform="matrix(0.06172839506172839,0,0,0.06172839506172839,46.91358024691358,0)" xlink:href="#bA"/><use transform="matrix(0.06172839506172839,0,0,0.06172839506172839,59.25925925925926,0)" xlink:href="#bB"/><use transform="matrix(0.06172839506172839,0,0,0.06172839506172839,64.1358024691358,0)" xlink:href="#bC"/><use transform="matrix(0.06172839506172839,0,0,0.06172839506172839,70.30864197530863,0)" xlink:href="#au"/></g><g id="ac"><use transform="matrix(0.05,0,0,0.05,0,0)" xlink:href="#aS"/><use transform="matrix(0.05,0,0,0.05,10,0)" xlink:href="#bk"/><use transform="matrix(0.05,0,0,0.05,20.950000000000003,0)" xlink:href="#az"/><use transform="matrix(0.05,0,0,0.05,31.900000000000006,0)" xlink:href="#aA"/><use transform="matrix(0.05,0,0,0.05,41.900000000000006,0)" xlink:href="#aF"/><use transform="matrix(0.05,0,0,0.05,52.85,0)" xlink:href="#bl"/><use transform="matrix(0.05,0,0,0.05,57.85,0)" xlink:href="#aB"/><use transform="matrix(0.05,0,0,0.05,63.80000000000001,0)" xlink:href="#aD"/><use transform="matrix(0.05,0,0,0.05,73.80000000000001,0)" xlink:href="#aB"/><use transform="matrix(0.05,0,0,0.05,79.75000000000001,0)" xlink:href="#ay"/><use transform="matrix(0.05,0,0,0.05,84.75000000000001,0)" xlink:href="#bk"/><use transform="matrix(0.05,0,0,0.05,95.70000000000002,0)" xlink:href="#az"/></g><g id="ad"><use transform="matrix(0.05432111111111112,0,0,0.05432111111111112,0,0)" xlink:href="#ba"/><use transform="matrix(0.05432111111111112,0,0,0.05432111111111112,4.291367777777778,0)" xlink:href="#aM"/></g><path d="M-5 72V49h209v23H-5" id="bD"/><g id="ae"><use transform="matrix(0.05432111111111112,0,0,0.05432111111111112,0,0)" xlink:href="#aM"/><use transform="matrix(0.05432111111111112,0,0,0.05432111111111112,10.864222222222224,0)" xlink:href="#aP"/><use transform="matrix(0.05432111111111112,0,0,0.05432111111111112,21.72844444444445,0)" xlink:href="#aL"/><use transform="matrix(0.05432111111111112,0,0,0.05432111111111112,27.16055555555556,0)" xlink:href="#aN"/><use transform="matrix(0.05432111111111112,0,0,0.05432111111111112,38.024777777777786,0)" xlink:href="#bD"/><use transform="matrix(0.05432111111111112,0,0,0.05432111111111112,48.88900000000001,0)" xlink:href="#bc"/><use transform="matrix(0.05432111111111112,0,0,0.05432111111111112,58.66680000000001,0)" xlink:href="#aK"/><use transform="matrix(0.05432111111111112,0,0,0.05432111111111112,69.53102222222223,0)" xlink:href="#aX"/><use transform="matrix(0.05432111111111112,0,0,0.05432111111111112,80.39524444444446,0)" xlink:href="#aQ"/><use transform="matrix(0.05432111111111112,0,0,0.05432111111111112,90.17304444444446,0)" xlink:href="#bt"/><use transform="matrix(0.05432111111111112,0,0,0.05432111111111112,101.03726666666668,0)" xlink:href="#bd"/><use transform="matrix(0.05432111111111112,0,0,0.05432111111111112,105.32863444444446,0)" xlink:href="#aL"/><use transform="matrix(0.05432111111111112,0,0,0.05432111111111112,110.76074555555557,0)" xlink:href="#aP"/><use transform="matrix(0.05432111111111112,0,0,0.05432111111111112,121.6249677777778,0)" xlink:href="#aL"/><use transform="matrix(0.05432111111111112,0,0,0.05432111111111112,127.05707888888891,0)" xlink:href="#ba"/><use transform="matrix(0.05432111111111112,0,0,0.05432111111111112,131.3484466666667,0)" xlink:href="#aK"/><use transform="matrix(0.05432111111111112,0,0,0.05432111111111112,142.2126688888889,0)" xlink:href="#aX"/></g><g id="af"><use transform="matrix(0.05432111111111112,0,0,0.05432111111111112,0,0)" xlink:href="#bc"/><use transform="matrix(0.05432111111111112,0,0,0.05432111111111112,9.777800000000001,0)" xlink:href="#aK"/><use transform="matrix(0.05432111111111112,0,0,0.05432111111111112,20.642022222222224,0)" xlink:href="#aT"/><use transform="matrix(0.05432111111111112,0,0,0.05432111111111112,36.88403444444445,0)" xlink:href="#aO"/><use transform="matrix(0.05432111111111112,0,0,0.05432111111111112,47.74825666666668,0)" xlink:href="#aL"/><use transform="matrix(0.05432111111111112,0,0,0.05432111111111112,53.18036777777779,0)" xlink:href="#aN"/></g><g id="ag"><use transform="matrix(0.05432111111111112,0,0,0.05432111111111112,0,0)" xlink:href="#aV"/><use transform="matrix(0.05432111111111112,0,0,0.05432111111111112,6.464212222222223,0)" xlink:href="#aN"/><use transform="matrix(0.05432111111111112,0,0,0.05432111111111112,17.328434444444447,0)" xlink:href="#aX"/><use transform="matrix(0.05432111111111112,0,0,0.05432111111111112,28.19265666666667,0)" xlink:href="#aM"/><use transform="matrix(0.05432111111111112,0,0,0.05432111111111112,39.056878888888896,0)" xlink:href="#bt"/></g><g id="ah"><use transform="matrix(0.05432111111111112,0,0,0.05432111111111112,0,0)" xlink:href="#aO"/><use transform="matrix(0.05432111111111112,0,0,0.05432111111111112,10.864222222222224,0)" xlink:href="#aV"/><use transform="matrix(0.05432111111111112,0,0,0.05432111111111112,17.328434444444447,0)" xlink:href="#aN"/><use transform="matrix(0.05432111111111112,0,0,0.05432111111111112,28.19265666666667,0)" xlink:href="#aQ"/><use transform="matrix(0.05432111111111112,0,0,0.05432111111111112,37.97045666666667,0)" xlink:href="#bc"/><use transform="matrix(0.05432111111111112,0,0,0.05432111111111112,47.74825666666667,0)" xlink:href="#aV"/><use transform="matrix(0.05432111111111112,0,0,0.05432111111111112,54.21246888888889,0)" xlink:href="#ba"/><use transform="matrix(0.05432111111111112,0,0,0.05432111111111112,58.50383666666667,0)" xlink:href="#aO"/><use transform="matrix(0.05432111111111112,0,0,0.05432111111111112,69.3680588888889,0)" xlink:href="#aL"/><use transform="matrix(0.05432111111111112,0,0,0.05432111111111112,74.80017000000001,0)" xlink:href="#ba"/><use transform="matrix(0.05432111111111112,0,0,0.05432111111111112,79.09153777777779,0)" xlink:href="#aK"/><use transform="matrix(0.05432111111111112,0,0,0.05432111111111112,89.95576000000001,0)" xlink:href="#aX"/></g><g id="ai"><use transform="matrix(0.05432111111111112,0,0,0.05432111111111112,0,0)" xlink:href="#ba"/><use transform="matrix(0.05432111111111112,0,0,0.05432111111111112,4.291367777777778,0)" xlink:href="#aM"/><use transform="matrix(0.05432111111111112,0,0,0.05432111111111112,15.155590000000005,0)" xlink:href="#bD"/><use transform="matrix(0.05432111111111112,0,0,0.05432111111111112,26.019812222222228,0)" xlink:href="#aP"/><use transform="matrix(0.05432111111111112,0,0,0.05432111111111112,36.88403444444445,0)" xlink:href="#aZ"/><use transform="matrix(0.05432111111111112,0,0,0.05432111111111112,47.74825666666668,0)" xlink:href="#aN"/><use transform="matrix(0.05432111111111112,0,0,0.05432111111111112,58.612478888888894,0)" xlink:href="#aX"/><use transform="matrix(0.05432111111111112,0,0,0.05432111111111112,69.47670111111113,0)" xlink:href="#aL"/><use transform="matrix(0.05432111111111112,0,0,0.05432111111111112,74.90881222222224,0)" xlink:href="#bb"/><use transform="matrix(0.05432111111111112,0,0,0.05432111111111112,87.9458788888889,0)" xlink:href="#aP"/><use transform="matrix(0.05432111111111112,0,0,0.05432111111111112,98.81010111111112,0)" xlink:href="#aX"/><use transform="matrix(0.05432111111111112,0,0,0.05432111111111112,109.67432333333335,0)" xlink:href="#aL"/><use transform="matrix(0.05432111111111112,0,0,0.05432111111111112,115.10643444444446,0)" xlink:href="#aN"/></g><g id="aj"><use transform="matrix(0.05432111111111112,0,0,0.05432111111111112,0,0)" xlink:href="#ba"/><use transform="matrix(0.05432111111111112,0,0,0.05432111111111112,4.291367777777778,0)" xlink:href="#aM"/><use transform="matrix(0.05432111111111112,0,0,0.05432111111111112,15.155590000000005,0)" xlink:href="#bD"/><use transform="matrix(0.05432111111111112,0,0,0.05432111111111112,26.019812222222228,0)" xlink:href="#aO"/><use transform="matrix(0.05432111111111112,0,0,0.05432111111111112,36.88403444444445,0)" xlink:href="#aP"/><use transform="matrix(0.05432111111111112,0,0,0.05432111111111112,47.74825666666668,0)" xlink:href="#aL"/><use transform="matrix(0.05432111111111112,0,0,0.05432111111111112,53.18036777777779,0)" xlink:href="#ba"/><use transform="matrix(0.05432111111111112,0,0,0.05432111111111112,57.47173555555556,0)" xlink:href="#aN"/><use transform="matrix(0.05432111111111112,0,0,0.05432111111111112,68.3359577777778,0)" xlink:href="#aX"/><use transform="matrix(0.05432111111111112,0,0,0.05432111111111112,79.20018000000002,0)" xlink:href="#aL"/></g><path fill="#333" d="M205 0l-28-72H64L36 0H1l101-248h38L239 0h-34zm-38-99l-47-123c-12 45-31 82-46 123h93" id="bE"/><path fill="#333" d="M108 0H70L1-190h34L89-25l56-165h34" id="bF"/><path fill="#333" d="M24-231v-30h32v30H24zM24 0v-190h32V0H24" id="bG"/><g id="am"><use transform="matrix(0.06172839506172839,0,0,0.06172839506172839,0,0)" xlink:href="#bE"/><use transform="matrix(0.06172839506172839,0,0,0.06172839506172839,14.382716049382715,0)" xlink:href="#bF"/><use transform="matrix(0.06172839506172839,0,0,0.06172839506172839,25.493827160493826,0)" xlink:href="#bx"/><use transform="matrix(0.06172839506172839,0,0,0.06172839506172839,37.839506172839506,0)" xlink:href="#bG"/><use transform="matrix(0.06172839506172839,0,0,0.06172839506172839,42.71604938271605,0)" xlink:href="#at"/></g><path fill="#333" d="M210-169c-67 3-38 105-44 169h-31v-121c0-29-5-50-35-48C34-165 62-65 56 0H25l-1-190h30c1 10-1 24 2 32 10-44 99-50 107 0 11-21 27-35 58-36 85-2 47 119 55 194h-31v-121c0-29-5-49-35-48" id="bH"/><path fill="#333" d="M85-194c31 0 48 13 60 33l-1-100h32l1 261h-30c-2-10 0-23-3-31C134-8 116 4 85 4 32 4 16-35 15-94c0-66 23-100 70-100zm9 24c-40 0-46 34-46 75 0 40 6 74 45 74 42 0 51-32 51-76 0-42-9-74-50-73" id="bI"/><path fill="#333" d="M101-234c-31-9-42 10-38 44h38v23H63V0H32v-167H5v-23h27c-7-52 17-82 69-68v24" id="bJ"/><g id="an"><use transform="matrix(0.06172839506172839,0,0,0.06172839506172839,0,0)" xlink:href="#bH"/><use transform="matrix(0.06172839506172839,0,0,0.06172839506172839,18.456790123456788,0)" xlink:href="#bx"/><use transform="matrix(0.06172839506172839,0,0,0.06172839506172839,30.80246913580247,0)" xlink:href="#bI"/><use transform="matrix(0.06172839506172839,0,0,0.06172839506172839,43.148148148148145,0)" xlink:href="#bG"/><use transform="matrix(0.06172839506172839,0,0,0.06172839506172839,48.02469135802469,0)" xlink:href="#bJ"/><use transform="matrix(0.06172839506172839,0,0,0.06172839506172839,54.19753086419753,0)" xlink:href="#bG"/><use transform="matrix(0.06172839506172839,0,0,0.06172839506172839,59.074074074074076,0)" xlink:href="#au"/></g><path fill="#333" d="M27 0v-27h64v-190l-56 39v-29l58-41h29v221h61V0H27" id="bK"/><path fill="#333" d="M68-38c1 34 0 65-14 84H32c9-13 17-26 17-46H33v-38h35" id="bL"/><g id="ap"><use transform="matrix(0.06172839506172839,0,0,0.06172839506172839,0,0)" xlink:href="#bK"/><use transform="matrix(0.06172839506172839,0,0,0.06172839506172839,12.345679012345679,0)" xlink:href="#bL"/><use transform="matrix(0.06172839506172839,0,0,0.06172839506172839,18.51851851851852,0)" xlink:href="#bK"/></g><g id="aq"><use transform="matrix(0.06172839506172839,0,0,0.06172839506172839,0,0)" xlink:href="#bK"/><use transform="matrix(0.06172839506172839,0,0,0.06172839506172839,12.345679012345679,0)" xlink:href="#bL"/><use transform="matrix(0.06172839506172839,0,0,0.06172839506172839,18.51851851851852,0)" xlink:href="#by"/></g><g id="ar"><use transform="matrix(0.06172839506172839,0,0,0.06172839506172839,0,0)" xlink:href="#bK"/><use transform="matrix(0.06172839506172839,0,0,0.06172839506172839,12.345679012345679,0)" xlink:href="#bL"/><use transform="matrix(0.06172839506172839,0,0,0.06172839506172839,18.51851851851852,0)" xlink:href="#by"/></g></defs></g></svg>