<svg xmlns="http://www.w3.org/2000/svg" xmlns:xlink="http://www.w3.org/1999/xlink" xmlns:lucid="lucid" width="1502.22" height="1080"><g transform="translate(-297.78395061728395 -20)" lucid:page-tab-id="0_0"><path d="M0 0h1870.87v1322.83H0z" fill="#fff"/><path d="M500 46a6 6 0 0 1 6-6h1268a6 6 0 0 1 6 6v1028a6 6 0 0 1-6 6H506a6 6 0 0 1-6-6z" stroke="#5e5e5e" stroke-width="3" fill-opacity="0"/><use xlink:href="#a" transform="matrix(1,0,0,1,508,48) translate(544.9938271604939 17.77777777777778)"/><use xlink:href="#b" transform="matrix(1,0,0,1,508,48) translate(633.820987654321 17.77777777777778)"/><use xlink:href="#c" transform="matrix(1,0,0,1,508,48) translate(664.6851851851852 17.77777777777778)"/><path d="M405 906.33c0 8.3-6.72 15-15 15-8.28 0-15-6.7-15-15 0-8.28 6.72-15 15-15 8.28 0 15 6.72 15 15z" stroke="#5e5e5e" stroke-width="3" fill="#fff"/><path d="M390 921.33v40a21.9 21.9 0 0 0 3.06 11.17L420 1018m-30-50.67L360 1018m0-81.67h60" stroke="#5e5e5e" stroke-width="3" fill="none"/><path d="M360 897.33a6 6 0 0 1 6-6h48a6 6 0 0 1 6 6V1034a6 6 0 0 1-6 6h-48a6 6 0 0 1-6-6z" fill="none"/><use xlink:href="#d" transform="matrix(1,0,0,1,280,1018) translate(76.69753086419753 17.77777777777778)"/><path d="M404.67 394.67c0 8.1-6.57 14.66-14.67 14.66s-14.67-6.56-14.67-14.66c0-8.1 6.57-14.67 14.67-14.67s14.67 6.57 14.67 14.67z" stroke="#5e5e5e" stroke-width="3" fill="#fff"/><path d="M390 409.33v35.07a20.53 20.53 0 0 0 3.23 11.06L420 497.33m-30-46.93l-30 46.93m0-73.33h60" stroke="#5e5e5e" stroke-width="3" fill="none"/><path d="M360 386a6 6 0 0 1 6-6h48a6 6 0 0 1 6 6v127.33a6 6 0 0 1-6 6h-48a6 6 0 0 1-6-6z" fill="none"/><use xlink:href="#e" transform="matrix(1,0,0,1,280,497.33333333333337) translate(68.08641975308642 17.77777777777778)"/><path d="M404.75 134.75c0 8.15-6.6 14.75-14.75 14.75s-14.75-6.6-14.75-14.75S381.85 120 390 120s14.75 6.6 14.75 14.75z" stroke="#5e5e5e" stroke-width="3" fill="#fff"/><path d="M390 149.5v35.3a20.63 20.63 0 0 0 3.22 11.06L420 238m-30-47.2L360 238m0-73.75h60" stroke="#5e5e5e" stroke-width="3" fill="none"/><path d="M360 126a6 6 0 0 1 6-6h48a6 6 0 0 1 6 6v128a6 6 0 0 1-6 6h-48a6 6 0 0 1-6-6z" fill="none"/><use xlink:href="#f" transform="matrix(1,0,0,1,280,238) translate(39.78395061728395 17.77777777777778)"/><path d="M405 655c0 8.28-6.72 15-15 15-8.28 0-15-6.72-15-15 0-8.28 6.72-15 15-15 8.28 0 15 6.72 15 15z" stroke="#5e5e5e" stroke-width="3" fill="#fff"/><path d="M390 670v46.8a23.6 23.6 0 0 0 2.87 11.27L420 778m-30-55.2L360 778m0-93h60" stroke="#5e5e5e" stroke-width="3" fill="none"/><path d="M360 646a6 6 0 0 1 6-6h48a6 6 0 0 1 6 6v148a6 6 0 0 1-6 6h-48a6 6 0 0 1-6-6z" fill="none"/><use xlink:href="#g" transform="matrix(1,0,0,1,280,778) translate(58.24074074074073 17.77777777777778)"/><path d="M909.67 90c0 27.6-49.25 50-110 50s-110-22.4-110-50 49.25-50 110-50 110 22.4 110 50z" stroke="#5e5e5e" stroke-width="3" fill="#fff"/><use xlink:href="#h" transform="matrix(1,0,0,1,689.6666666666666,40) translate(36.654999999999994 54.56666666666667)"/><use xlink:href="#i" transform="matrix(1,0,0,1,689.6666666666666,40) translate(109.50500000000001 54.56666666666667)"/><use xlink:href="#j" transform="matrix(1,0,0,1,689.6666666666666,40) translate(134.505 54.56666666666667)"/><path d="M909.67 450c0 27.6-49.25 50-110 50s-110-22.4-110-50 49.25-50 110-50 110 22.4 110 50z" stroke="#5e5e5e" stroke-width="3" fill="#fff"/><use xlink:href="#k" transform="matrix(1,0,0,1,689.6666666666666,400) translate(46.592037037037045 42.06666666666667)"/><use xlink:href="#l" transform="matrix(1,0,0,1,689.6666666666666,400) translate(153.41796296296297 42.06666666666667)"/><use xlink:href="#j" transform="matrix(1,0,0,1,689.6666666666666,400) translate(85.58 67.66666666666669)"/><path d="M920 330c0 27.6-49.55 50-110.67 50-61.12 0-110.66-22.4-110.66-50s49.54-50 110.66-50S920 302.4 920 330z" stroke="#5e5e5e" stroke-width="3" fill="#fff"/><use xlink:href="#m" transform="matrix(1,0,0,1,698.6666666666666,280) translate(28.12999999999999 55.025)"/><use xlink:href="#i" transform="matrix(1,0,0,1,698.6666666666666,280) translate(120.03 55.025)"/><use xlink:href="#n" transform="matrix(1,0,0,1,698.6666666666666,280) translate(145.03000000000003 55.025)"/><path d="M860 910c0 27.6-49.25 50-110 50s-110-22.4-110-50 49.25-50 110-50 110 22.4 110 50z" stroke="#5e5e5e" stroke-width="3" fill="#fff"/><use xlink:href="#o" transform="matrix(1,0,0,1,640,860) translate(49.105000000000004 42.525)"/><use xlink:href="#p" transform="matrix(1,0,0,1,640,860) translate(92.00500000000001 42.525)"/><use xlink:href="#q" transform="matrix(1,0,0,1,640,860) translate(107.00500000000001 42.525)"/><use xlink:href="#r" transform="matrix(1,0,0,1,640,860) translate(141.905 42.525)"/><use xlink:href="#s" transform="matrix(1,0,0,1,640,860) translate(27.079999999999995 64.125)"/><use xlink:href="#t" transform="matrix(1,0,0,1,640,860) translate(101.08 64.125)"/><path d="M909.67 210c0 27.6-44.92 50-100.34 50-55.4 0-100.33-22.4-100.33-50s44.92-50 100.33-50c55.42 0 100.34 22.4 100.34 50z" stroke="#5e5e5e" stroke-width="3" fill="#fff"/><use xlink:href="#u" transform="matrix(1,0,0,1,709,160) translate(72.555 21.41)"/><use xlink:href="#r" transform="matrix(1,0,0,1,709,160) translate(86.00500000000001 43.01)"/><use xlink:href="#v" transform="matrix(1,0,0,1,709,160) translate(36.105000000000004 64.61)"/><path d="M1670.87 430c0 27.6-49.25 50-110 50-60.76 0-110-22.4-110-50s49.24-50 110-50c60.75 0 110 22.4 110 50z" stroke="#5e5e5e" stroke-width="3" fill="#fff"/><use xlink:href="#w" transform="matrix(1,0,0,1,1450.8661417322833,380) translate(59.37999999999999 55.025)"/><path d="M1560.87 482.5v3.3m0 4.4v6.6m0 4.4v6.6m0 4.4v3.3l-.08.94-.23.9-.25.62m-2.17 2.54l-.56.35-.88.36-.92.23h-3m-3.98 0h-6m-3.98 0h-5.98m-4 0h-5.98m-4 0h-5.98m-4 0h-5.97m-4 0h-5.98m-4 0h-5.98m-4 0H1473m-4 0h-5.98m-4 0h-5.98m-4 0h-5.98m-4 0h-5.98m-4 0h-5.97m-3.98 0h-6m-3.98 0l-6 .02m-3.98 0h-6m-3.98 0h-5.98m-4 0h-5.98m-4 0h-5.98m-4 0h-5.97m-4 0h-5.98m-4 0h-6m-3.98 0h-6m-3.98 0h-5.98m-4 0h-5.98m-4 0h-5.98m-4 0h-5.98m-4 0h-5.97m-4 0h-5.98m-4 0h-5.98m-4 0h-5.98m-4 .02h-5.98m-4 0h-5.98m-4 0h-5.98m-4 0h-5.97m-3.98 0h-6m-3.98 0h-6m-3.98 0h-6m-3.98 0h-5.98m-4 0h-5.98m-4 0h-5.98m-4 0h-5.98m-4 0h-5.97m-4 0h-6m-3.98 0h-6m-3.98 0h-5.98m-4 0h-5.98m-4 0l-5.98.02m-4 0h-5.98m-4 0h-5.97m-4 0h-5.98m-4 0H1034m-4 0h-6m-3.98 0h-5.98m-4 0h-5.98m-4 0h-5.98m-4 0h-5.97m-4 0h-5.97m-4 0h-5.98m-4 0h-2.98l-.94-.07-.92-.22-.6-.25m-2.53-2.16l-.35-.58-.36-.87-.22-.9v-3.02m0-4v-6m0-4.02v-6m0-4v-6m0-4.02v-6m0-4v-6.02m0-4v-6m-.02-4.02v-6m0-4v-6.02m0-4v-6.02m0-4v-6m0-4.02v-6m0-4v-6.02m0-4v-6.02m0-4v-6m-.02-4.02v-6m0-4v-6.02m0-4v-6m0-4.02v-6m0-4v-6.02m0-4v-6.02m0-4v-6m0-4.02v-6m-.02-4v-6.02m0-4v-6.02m0-4v-6m0-4.02v-6m0-4v-6.02m0-4V233m0-4v-6m0-4.02v-3l-.1-.94-.2-.9-.26-.62m-2.17-2.54l-.56-.35-.88-.36-.9-.23h-2.48m-3.3-.02l-4.92-.02m-3.3-.02h-2.45" stroke="#5e5e5e" stroke-width="2" fill="none"/><path d="M1560.86 481.5h1v1.03h-2v-1.05z" stroke="#5e5e5e" stroke-width=".05" fill="#5e5e5e"/><path d="M914.4 210l14.27-4.64v9.28z" stroke="#5e5e5e" stroke-width="2" fill="#5e5e5e"/><path d="M1448.37 430h-9.76m-9.75 0h-1.96m-9.76 0h-19.52m-9.76 0h-1.96m-9.76 0h-19.5m-9.77 0h-1.96m-9.75 0h-19.5m-9.77 0h-1.96m-9.76 0h-19.52m-9.75 0h-1.97m-9.76 0h-19.52m-9.76 0h-1.96m-9.76 0h-19.52m-9.76 0h-1.95m-9.76 0h-9.77l-.94.07-.92.22-.87.35-.8.5-.7.6-.62.72-.5.8-.35.88-.22.9v10.16m0 10.16v2.03m0 10.14v20.3m0 10.15V500m0 10.15v20.3m0 10.15v2.03m0 10.15v20.3m-.02 10.15v2.03m0 10.15v20.3m0 10.15v2.03m0 10.17v20.3m0 10.15v2.03m0 10.15V701m-.02 10.15v2.03m0 10.15v20.3m0 10.15v2.03m0 10.16v20.3m0 10.15v2.04m0 10.15l-.02 20.3m0 10.14v2.03m0 10.15v20.3m0 10.15v2.03m0 10.15V904l-.08.94-.22.9-.36.88-.5.8-.6.72-.72.6-.8.5-.87.37-.93.23h-10.73m-10.73 0h-2.13m-10.73 0h-21.46m-10.73 0h-2.14m-10.72.02h-21.46m-10.73 0h-2.16m-10.72 0l-21.46.02m-10.73 0h-2.15m-10.73 0H959.4m-10.73 0h-2.15m-10.73 0l-21.47.02m-10.72 0h-2.14m-10.73 0H880" stroke="#5e5e5e" stroke-width="2" fill="none"/><path d="M1449.37 430v.63l.02.37h-1.06v-2h1.05z" stroke="#5e5e5e" stroke-width=".05" fill="#5e5e5e"/><path d="M864.74 910l14.26-4.64v9.28z" stroke="#5e5e5e" stroke-width="2" fill="#5e5e5e"/><path d="M929.67 450h3.06m4.07 0h6.12m4.07 0h6.1m4.1 0h6.1m4.08 0h6.1m4.1 0h6.1m4.08 0h6.12m4.07 0h6.12m4.07 0h6.12m4.08 0h6.1m4.1 0h6.1m4.08 0h6.1m4.1 0h6.1m4.08 0h6.12m4.07 0h6.1m4.08 0h6.12m4.08 0h6.1m4.1 0h6.1m4.08 0h6.1m4.1 0h6.1m4.08 0h6.12m4.07 0h6.12m4.08 0h6.1m4.1 0h6.1m4.08 0h3.07l.94-.07.92-.22.6-.25m2.55-2.16l.34-.58.37-.87.22-.9v-2.7m.04-3.57l.03-2.68.07-.94.22-.9.25-.62M1183 431l.56-.35.87-.36.93-.23h3.03m4.05 0h6.08m4.05 0h6.07m4.04 0h6.07m4.06 0h6.07m4.05 0h6.07m4.04 0h6.06m4.05-.02h6.08m4.05 0h6.07m4.04 0h6.07m4.06 0h6.07m4.05 0h6.07m4.04 0h6.07m4.04 0h6.08m4.05-.02h6.07m4.05 0h6.07m4.04 0h6.07m4.05 0h6.07m4.05 0h6.07m4.04 0h6.08m4.05 0h6.07m4.05 0l6.07-.02m4.04 0h6.07m4.05 0h6.07m4.05 0h6.07m4.04 0h6.08m4.05 0h3.04" stroke="#5e5e5e" stroke-width="2" fill="none"/><path d="M914.4 450l14.27-4.64v9.28z" stroke="#5e5e5e" stroke-width="2" fill="#5e5e5e"/><path d="M1449.37 430v.63l.02.37h-1.06v-2h1.05z" stroke="#5e5e5e" stroke-width=".05" fill="#5e5e5e"/><path d="M929.67 90h4m8.02 0h8m8.02 0h8.02m8 0h8.03m8 0h8.03m8 0h8.03m8.02 0h8m8.03 0h8m8.03 0h8.02m8.02 0h8m8.03 0h8m8.03 0h8m8.03 0h8m8.03 0h8.02m8 0h8.03m8.02 0h8.02m8 0h8.03m8 0h8.03m8 0h8.03m8 0h8.03m8.02 0h8m8.03 0h8.02m8.02 0h8m8.03 0h8m8.03 0h8m8.03 0h8m8.03 0h8m8.03 0h8m8.02 0h8.02m8 0h8.03m8 0h8.03m8 0h8.03m8 0h8.03m8 0h8.03m8 0h8.02m8.02 0h8m8.03 0h8m8.03 0h8m8.03 0h8m8.03 0h4l.94.07.92.22.87.35.8.5.7.6.62.72.5.8.35.88.22.9V99m0 7.85v7.85m0 7.84v7.85m0 7.84v7.86m0 7.84v7.85m0 7.84v7.84m.02 7.84v7.85m0 7.85v7.84m0 7.85v7.84m0 7.86v7.84m0 7.85v7.84m.02 7.84v7.85m0 7.83v7.85m0 7.84v7.85m0 7.84v7.86m0 7.84v7.85m.02 7.85v7.84m0 7.85v7.83m0 7.85v3.92" stroke="#5e5e5e" stroke-width="2" fill="none"/><path d="M914.4 90l14.27-4.64v9.28z" stroke="#5e5e5e" stroke-width="2" fill="#5e5e5e"/><path d="M1561.87 378.52l-1-.02h-1v-1.03h2z" stroke="#5e5e5e" stroke-width=".05" fill="#5e5e5e"/><use xlink:href="#x" transform="matrix(1,0,0,1,1266.2241550939416,64.66666666666666) translate(0 14.222222222222223)"/><path d="M1100 280h104.57v31.33H1100z" fill="#fff" fill-opacity="0"/><use xlink:href="#x" transform="matrix(1,0,0,1,1105,285) translate(0 14.222222222222223)"/><path d="M1160 680h104.57v31.33H1160z" fill="#fff" fill-opacity="0"/><use xlink:href="#x" transform="matrix(1,0,0,1,1165,685) translate(0 14.222222222222223)"/><path d="M1160 860h104.57v31.33H1160z" fill="#fff" fill-opacity="0"/><use xlink:href="#x" transform="matrix(1,0,0,1,1165,865) translate(0 14.222222222222223)"/><path d="M939.98 329h2.32m3.1 0h4.65m3.1 0h2.33l.94.07.9.22.62.24m2.54 2.17l.34.57.36.87.22.92v3.02m0 4.03v6.06m0 4.03v6.04m0 4.03l.02 6.05m0 4.03v6.05m0 4.03v6.05m0 4.03v6.06m0 4.03v6.04m0 4.03l.02 6.05m0 4.03v6.05m0 4.04v6.04m0 4.04v6.04m0 4.04v6.04m.02 4.04v6.04m0 4.04v6.04m0 4.04v6.04m0 4.04v6.04m0 4.04v6.04m.02 4.04v3.02l.07.94.22.9.25.62m2.17 2.54l.55.35.87.36.92.23h3m3.98 0h5.98m4 0h5.97m4 0h5.97m4 0h5.98m4 0h5.97m3.98 0h5.98m4 0h5.97m4 0h5.97m4 0h5.97m4 0h5.98m4 0h5.97m4 0h5.97m3.98 0h5.98m4 0h5.97m4 0l5.97.02m4 0h5.98m3.98 0h6m3.98 0h5.98m4 0h5.97m3.98 0h5.98m4 0h5.97m4 0h5.98m4 0h5.98m4 0h5.97m4 0h5.97m4 0h5.97m3.98 0h5.98m4 0h5.98m3.98 0h6m3.98 0h5.98m4 0l5.97.02m4 0h5.97m4 0h5.97m3.98 0h6m3.97 0h6m3.98 0h5.98m4 0h5.98m4 0h5.97m4 0h5.97m4 0h5.98m3.98 0h6m3.98 0h5.98m4 0h5.97m4 0h5.98m4 0h5.97m4 0h5.98m3.98 0l6 .02m4 0h5.97m4 0h5.97m4 0h5.97m4 0h5.98m4 0h5.98m3.98 0h6m3.98 0h5.98m4 0h5.97m4 0h5.97m4 0h5.97m4 0h6m3.97 0h3l.93-.07.92-.22.6-.25m2.55-2.16l.34-.58.37-.87.22-.9v-3.4m0-4.53l.02-6.8m0-4.5l.03-6.8m0-4.53l.02-3.4" stroke="#5e5e5e" stroke-width="2" fill="none"/><path d="M924.7 329l14.28-4.64v9.27z" stroke="#5e5e5e" stroke-width="2" fill="#5e5e5e"/><path d="M1560.86 481.5h1v1.03h-2v-1.05z" stroke="#5e5e5e" stroke-width=".05" fill="#5e5e5e"/><path d="M392.5 178.8h141.33a6 6 0 0 0 6-6V96a6 6 0 0 1 6-6h123.83M392.53 178.8h-4.03" stroke="#5e5e5e" stroke-width="2" fill="none"/><path d="M684.93 90l-14.27 4.64v-9.28z" stroke="#5e5e5e" stroke-width="2" fill="#5e5e5e"/><path d="M1060 650c0 27.6-49.25 50-110 50s-110-22.4-110-50 49.25-50 110-50 110 22.4 110 50z" stroke="#5e5e5e" stroke-width="3" fill="#fff"/><use xlink:href="#y" transform="matrix(1,0,0,1,840,600) translate(62.055 28.076666666666668)"/><use xlink:href="#z" transform="matrix(1,0,0,1,840,600) translate(30.57999999999999 51.010000000000005)"/><use xlink:href="#A" transform="matrix(1,0,0,1,840,600) translate(64.57999999999998 51.010000000000005)"/><use xlink:href="#z" transform="matrix(1,0,0,1,840,600) translate(127.42999999999999 51.010000000000005)"/><use xlink:href="#B" transform="matrix(1,0,0,1,840,600) translate(161.43 51.010000000000005)"/><use xlink:href="#C" transform="matrix(1,0,0,1,840,600) translate(78.53 75.27666666666667)"/><path d="M780 650c0 27.6-49.25 50-110 50s-110-22.4-110-50 49.25-50 110-50 110 22.4 110 50z" stroke="#5e5e5e" stroke-width="3" fill="#fff"/><use xlink:href="#k" transform="matrix(1,0,0,1,560,600) translate(46.592037037037045 42.06666666666667)"/><use xlink:href="#l" transform="matrix(1,0,0,1,560,600) translate(153.41796296296297 42.06666666666667)"/><use xlink:href="#D" transform="matrix(1,0,0,1,560,600) translate(41.7874074074074 67.66666666666669)"/><use xlink:href="#E" transform="matrix(1,0,0,1,560,600) translate(96.56333333333332 67.66666666666669)"/><path d="M799.67 502.5V544a6 6 0 0 1-6 6H676a6 6 0 0 0-6 6v24" stroke="#5e5e5e" stroke-width="2" fill="none"/><path d="M799.66 501.5h1v1.03h-2v-1.05z" stroke="#5e5e5e" stroke-width=".05" fill="#5e5e5e"/><path d="M670 595.26L665.36 581h9.28z" stroke="#5e5e5e" stroke-width="2" fill="#5e5e5e"/><path d="M950 580v-24a6 6 0 0 0-6-6H805.67a6 6 0 0 1-6-6v-41.5" stroke="#5e5e5e" stroke-width="2" fill="none"/><path d="M950 595.26L945.36 581h9.28z" stroke="#5e5e5e" stroke-width="2" fill="#5e5e5e"/><path d="M799.66 501.5h1v1.03h-2v-1.05z" stroke="#5e5e5e" stroke-width=".05" fill="#5e5e5e"/><path d="M678.66 330H550.7a6 6 0 0 1-6-6V196a6 6 0 0 0-6-6H393.22" stroke="#5e5e5e" stroke-width="2" fill="none"/><path d="M693.93 330l-14.27 4.64v-9.28z" stroke="#5e5e5e" stroke-width="2" fill="#5e5e5e"/><path d="M393.25 190h-4.03M689 210H555.86a6 6 0 0 1-6-6v-8a6 6 0 0 0-6-6H393.22" stroke="#5e5e5e" stroke-width="2" fill="none"/><path d="M704.26 210L690 214.64v-9.28z" stroke="#5e5e5e" stroke-width="2" fill="#5e5e5e"/><path d="M393.25 190h-4.03M390 637.5V471.7" stroke="#5e5e5e" stroke-width="2" fill="none"/><path d="M391 638.62l-1-.13-1 .12v-1.16h2z" stroke="#5e5e5e" stroke-width=".05" fill="#5e5e5e"/><path d="M390 456.42l4.64 14.27h-9.28z" stroke="#5e5e5e" stroke-width="2" fill="#5e5e5e"/><path d="M392.5 438.48h148.47a.17.17 0 0 1 .16.16.17.17 0 0 0 .17.17h130.97M392.53 438.48h-4.03" stroke="#5e5e5e" stroke-width="2" fill="none"/><path d="M687.53 438.8l-14.26 4.64v-9.27z" stroke="#5e5e5e" stroke-width="2" fill="#5e5e5e"/><path d="M637.5 910H521.37a6 6 0 0 1-6-6V455.67a6 6 0 0 0-6-6h-98.62" stroke="#5e5e5e" stroke-width="2" fill="none"/><path d="M638.5 910v.63l.03.37h-1.06v-2h1.05z" stroke="#5e5e5e" stroke-width=".05" fill="#5e5e5e"/><path d="M395.48 449.67l14.27-4.64v9.27z" stroke="#5e5e5e" stroke-width="2" fill="#5e5e5e"/><path d="M392.5 954.45h141.33a6 6 0 0 0 6-6V456a6 6 0 0 1 6-6h123.83M392.53 954.45h-4.03" stroke="#5e5e5e" stroke-width="2" fill="none"/><path d="M684.93 450l-14.27 4.64v-9.28z" stroke="#5e5e5e" stroke-width="2" fill="#5e5e5e"/><path d="M731.5 961.5h-339" stroke="#5e5e5e" stroke-width="2" fill="none"/><path d="M746.76 961.5l-14.26 4.64v-9.28z" stroke="#5e5e5e" stroke-width="2" fill="#5e5e5e"/><path d="M392.53 961.5h-4.02" stroke="#5e5e5e" stroke-width="2" fill="none"/><defs><path fill="#333" d="M135-143c-3-34-86-38-87 0 15 53 115 12 119 90S17 21 10-45l28-5c4 36 97 45 98 0-10-56-113-15-118-90-4-57 82-63 122-42 12 7 21 19 24 35" id="F"/><path fill="#333" d="M179-190L93 31C79 59 56 82 12 73V49c39 6 53-20 64-50L1-190h34L92-34l54-156h33" id="G"/><path fill="#333" d="M59-47c-2 24 18 29 38 22v24C64 9 27 4 27-40v-127H5v-23h24l9-43h21v43h35v23H59v120" id="H"/><path fill="#333" d="M100-194c63 0 86 42 84 106H49c0 40 14 67 53 68 26 1 43-12 49-29l28 8c-11 28-37 45-77 45C44 4 14-33 15-96c1-61 26-98 85-98zm52 81c6-60-76-77-97-28-3 7-6 17-6 28h103" id="I"/><path fill="#333" d="M210-169c-67 3-38 105-44 169h-31v-121c0-29-5-50-35-48C34-165 62-65 56 0H25l-1-190h30c1 10-1 24 2 32 10-44 99-50 107 0 11-21 27-35 58-36 85-2 47 119 55 194h-31v-121c0-29-5-49-35-48" id="J"/><g id="a"><use transform="matrix(0.06172839506172839,0,0,0.06172839506172839,0,0)" xlink:href="#F"/><use transform="matrix(0.06172839506172839,0,0,0.06172839506172839,11.11111111111111,0)" xlink:href="#G"/><use transform="matrix(0.06172839506172839,0,0,0.06172839506172839,22.22222222222222,0)" xlink:href="#F"/><use transform="matrix(0.06172839506172839,0,0,0.06172839506172839,33.33333333333333,0)" xlink:href="#H"/><use transform="matrix(0.06172839506172839,0,0,0.06172839506172839,39.50617283950617,0)" xlink:href="#I"/><use transform="matrix(0.06172839506172839,0,0,0.06172839506172839,51.85185185185185,0)" xlink:href="#J"/><use transform="matrix(0.06172839506172839,0,0,0.06172839506172839,70.30864197530863,0)" xlink:href="#I"/></g><path fill="#333" d="M85-194c31 0 48 13 60 33l-1-100h32l1 261h-30c-2-10 0-23-3-31C134-8 116 4 85 4 32 4 16-35 15-94c0-66 23-100 70-100zm9 24c-40 0-46 34-46 75 0 40 6 74 45 74 42 0 51-32 51-76 0-42-9-74-50-73" id="K"/><g id="b"><use transform="matrix(0.06172839506172839,0,0,0.06172839506172839,0,0)" xlink:href="#K"/><use transform="matrix(0.06172839506172839,0,0,0.06172839506172839,12.345679012345679,0)" xlink:href="#I"/></g><path fill="#333" d="M141-36C126-15 110 5 73 4 37 3 15-17 15-53c-1-64 63-63 125-63 3-35-9-54-41-54-24 1-41 7-42 31l-33-3c5-37 33-52 76-52 45 0 72 20 72 64v82c-1 20 7 32 28 27v20c-31 9-61-2-59-35zM48-53c0 20 12 33 32 33 41-3 63-29 60-74-43 2-92-5-92 41" id="L"/><path fill="#333" d="M117-194c89-4 53 116 60 194h-32v-121c0-31-8-49-39-48C34-167 62-67 57 0H25l-1-190h30c1 10-1 24 2 32 11-22 29-35 61-36" id="M"/><path fill="#333" d="M100-194c63 0 86 42 84 106H49c0 40 14 67 53 68 26 1 43-12 49-29l28 8c-11 28-37 45-77 45C44 4 14-33 15-96c1-61 26-98 85-98zm52 81c6-60-76-77-97-28-3 7-6 17-6 28h103zm-74-98c8-23 27-35 38-54h36v5l-58 49H78" id="N"/><g id="c"><use transform="matrix(0.06172839506172839,0,0,0.06172839506172839,0,0)" xlink:href="#F"/><use transform="matrix(0.06172839506172839,0,0,0.06172839506172839,11.11111111111111,0)" xlink:href="#L"/><use transform="matrix(0.06172839506172839,0,0,0.06172839506172839,23.45679012345679,0)" xlink:href="#M"/><use transform="matrix(0.06172839506172839,0,0,0.06172839506172839,35.80246913580247,0)" xlink:href="#H"/><use transform="matrix(0.06172839506172839,0,0,0.06172839506172839,41.97530864197531,0)" xlink:href="#N"/></g><path fill="#333" d="M115-194c55 1 70 41 70 98S169 2 115 4C84 4 66-9 55-30l1 105H24l-1-265h31l2 30c10-21 28-34 59-34zm-8 174c40 0 45-34 45-75s-6-73-45-74c-42 0-51 32-51 76 0 43 10 73 51 73" id="O"/><path fill="#333" d="M24-231v-30h32v30H24zM24 0v-190h32V0H24" id="P"/><g id="d"><use transform="matrix(0.06172839506172839,0,0,0.06172839506172839,0,0)" xlink:href="#O"/><use transform="matrix(0.06172839506172839,0,0,0.06172839506172839,12.345679012345679,0)" xlink:href="#L"/><use transform="matrix(0.06172839506172839,0,0,0.06172839506172839,24.691358024691358,0)" xlink:href="#H"/><use transform="matrix(0.06172839506172839,0,0,0.06172839506172839,30.864197530864196,0)" xlink:href="#P"/><use transform="matrix(0.06172839506172839,0,0,0.06172839506172839,35.74074074074074,0)" xlink:href="#I"/><use transform="matrix(0.06172839506172839,0,0,0.06172839506172839,48.08641975308642,0)" xlink:href="#M"/><use transform="matrix(0.06172839506172839,0,0,0.06172839506172839,60.432098765432094,0)" xlink:href="#H"/></g><path fill="#333" d="M96-169c-40 0-48 33-48 73s9 75 48 75c24 0 41-14 43-38l32 2c-6 37-31 61-74 61-59 0-76-41-82-99-10-93 101-131 147-64 4 7 5 14 7 22l-32 3c-4-21-16-35-41-35" id="Q"/><g id="e"><use transform="matrix(0.06172839506172839,0,0,0.06172839506172839,0,0)" xlink:href="#J"/><use transform="matrix(0.06172839506172839,0,0,0.06172839506172839,18.456790123456788,0)" xlink:href="#I"/><use transform="matrix(0.06172839506172839,0,0,0.06172839506172839,30.80246913580247,0)" xlink:href="#K"/><use transform="matrix(0.06172839506172839,0,0,0.06172839506172839,43.148148148148145,0)" xlink:href="#I"/><use transform="matrix(0.06172839506172839,0,0,0.06172839506172839,55.49382716049382,0)" xlink:href="#Q"/><use transform="matrix(0.06172839506172839,0,0,0.06172839506172839,66.60493827160494,0)" xlink:href="#P"/><use transform="matrix(0.06172839506172839,0,0,0.06172839506172839,71.48148148148148,0)" xlink:href="#M"/></g><path fill="#333" d="M114-163C36-179 61-72 57 0H25l-1-190h30c1 12-1 29 2 39 6-27 23-49 58-41v29" id="R"/><path fill="#333" d="M84 4C-5 8 30-112 23-190h32v120c0 31 7 50 39 49 72-2 45-101 50-169h31l1 190h-30c-1-10 1-25-2-33-11 22-28 36-60 37" id="S"/><g id="f"><use transform="matrix(0.06172839506172839,0,0,0.06172839506172839,0,0)" xlink:href="#L"/><use transform="matrix(0.06172839506172839,0,0,0.06172839506172839,12.345679012345679,0)" xlink:href="#K"/><use transform="matrix(0.06172839506172839,0,0,0.06172839506172839,24.691358024691358,0)" xlink:href="#J"/><use transform="matrix(0.06172839506172839,0,0,0.06172839506172839,43.148148148148145,0)" xlink:href="#P"/><use transform="matrix(0.06172839506172839,0,0,0.06172839506172839,48.02469135802469,0)" xlink:href="#M"/><use transform="matrix(0.06172839506172839,0,0,0.06172839506172839,60.37037037037037,0)" xlink:href="#P"/><use transform="matrix(0.06172839506172839,0,0,0.06172839506172839,65.24691358024691,0)" xlink:href="#F"/><use transform="matrix(0.06172839506172839,0,0,0.06172839506172839,76.35802469135803,0)" xlink:href="#H"/><use transform="matrix(0.06172839506172839,0,0,0.06172839506172839,82.53086419753086,0)" xlink:href="#R"/><use transform="matrix(0.06172839506172839,0,0,0.06172839506172839,89.87654320987654,0)" xlink:href="#L"/><use transform="matrix(0.06172839506172839,0,0,0.06172839506172839,102.22222222222223,0)" xlink:href="#H"/><use transform="matrix(0.06172839506172839,0,0,0.06172839506172839,108.39506172839506,0)" xlink:href="#I"/><use transform="matrix(0.06172839506172839,0,0,0.06172839506172839,120.74074074074075,0)" xlink:href="#S"/><use transform="matrix(0.06172839506172839,0,0,0.06172839506172839,133.08641975308643,0)" xlink:href="#R"/></g><path fill="#333" d="M100-194c62-1 85 37 85 99 1 63-27 99-86 99S16-35 15-95c0-66 28-99 85-99zM99-20c44 1 53-31 53-75 0-43-8-75-51-75s-53 32-53 75 10 74 51 75" id="T"/><path fill="#333" d="M24 0v-261h32V0H24" id="U"/><path fill="#333" d="M177-190C167-65 218 103 67 71c-23-6-38-20-44-43l32-5c15 47 100 32 89-28v-30C133-14 115 1 83 1 29 1 15-40 15-95c0-56 16-97 71-98 29-1 48 16 59 35 1-10 0-23 2-32h30zM94-22c36 0 50-32 50-73 0-42-14-75-50-75-39 0-46 34-46 75s6 73 46 73" id="V"/><g id="g"><use transform="matrix(0.06172839506172839,0,0,0.06172839506172839,0,0)" xlink:href="#R"/><use transform="matrix(0.06172839506172839,0,0,0.06172839506172839,7.345679012345679,0)" xlink:href="#L"/><use transform="matrix(0.06172839506172839,0,0,0.06172839506172839,19.691358024691358,0)" xlink:href="#K"/><use transform="matrix(0.06172839506172839,0,0,0.06172839506172839,32.03703703703704,0)" xlink:href="#P"/><use transform="matrix(0.06172839506172839,0,0,0.06172839506172839,36.91358024691358,0)" xlink:href="#T"/><use transform="matrix(0.06172839506172839,0,0,0.06172839506172839,49.25925925925926,0)" xlink:href="#U"/><use transform="matrix(0.06172839506172839,0,0,0.06172839506172839,54.135802469135804,0)" xlink:href="#T"/><use transform="matrix(0.06172839506172839,0,0,0.06172839506172839,66.48148148148148,0)" xlink:href="#V"/><use transform="matrix(0.06172839506172839,0,0,0.06172839506172839,78.82716049382717,0)" xlink:href="#S"/><use transform="matrix(0.06172839506172839,0,0,0.06172839506172839,91.17283950617285,0)" xlink:href="#I"/></g><path d="M212-179c-10-28-35-45-73-45-59 0-87 40-87 99 0 60 29 101 89 101 43 0 62-24 78-52l27 14C228-24 195 4 139 4 59 4 22-46 18-125c-6-104 99-153 187-111 19 9 31 26 39 46" id="W"/><path d="M114-163C36-179 61-72 57 0H25l-1-190h30c1 12-1 29 2 39 6-27 23-49 58-41v29" id="X"/><path d="M100-194c63 0 86 42 84 106H49c0 40 14 67 53 68 26 1 43-12 49-29l28 8c-11 28-37 45-77 45C44 4 14-33 15-96c1-61 26-98 85-98zm52 81c6-60-76-77-97-28-3 7-6 17-6 28h103" id="Y"/><path d="M141-36C126-15 110 5 73 4 37 3 15-17 15-53c-1-64 63-63 125-63 3-35-9-54-41-54-24 1-41 7-42 31l-33-3c5-37 33-52 76-52 45 0 72 20 72 64v82c-1 20 7 32 28 27v20c-31 9-61-2-59-35zM48-53c0 20 12 33 32 33 41-3 63-29 60-74-43 2-92-5-92 41" id="Z"/><path d="M59-47c-2 24 18 29 38 22v24C64 9 27 4 27-40v-127H5v-23h24l9-43h21v43h35v23H59v120" id="aa"/><path d="M24-231v-30h32v30H24zM24 0v-190h32V0H24" id="ab"/><path d="M100-194c62-1 85 37 85 99 1 63-27 99-86 99S16-35 15-95c0-66 28-99 85-99zM99-20c44 1 53-31 53-75 0-43-8-75-51-75s-53 32-53 75 10 74 51 75" id="ac"/><path d="M117-194c89-4 53 116 60 194h-32v-121c0-31-8-49-39-48C34-167 62-67 57 0H25l-1-190h30c1 10-1 24 2 32 11-22 29-35 61-36" id="ad"/><g id="h"><use transform="matrix(0.05,0,0,0.05,0,0)" xlink:href="#W"/><use transform="matrix(0.05,0,0,0.05,12.950000000000001,0)" xlink:href="#X"/><use transform="matrix(0.05,0,0,0.05,18.900000000000002,0)" xlink:href="#Y"/><use transform="matrix(0.05,0,0,0.05,28.900000000000002,0)" xlink:href="#Z"/><use transform="matrix(0.05,0,0,0.05,38.900000000000006,0)" xlink:href="#aa"/><use transform="matrix(0.05,0,0,0.05,43.900000000000006,0)" xlink:href="#ab"/><use transform="matrix(0.05,0,0,0.05,47.85000000000001,0)" xlink:href="#ac"/><use transform="matrix(0.05,0,0,0.05,57.85,0)" xlink:href="#ad"/></g><path d="M85-194c31 0 48 13 60 33l-1-100h32l1 261h-30c-2-10 0-23-3-31C134-8 116 4 85 4 32 4 16-35 15-94c0-66 23-100 70-100zm9 24c-40 0-46 34-46 75 0 40 6 74 45 74 42 0 51-32 51-76 0-42-9-74-50-73" id="ae"/><path d="M84 4C-5 8 30-112 23-190h32v120c0 31 7 50 39 49 72-2 45-101 50-169h31l1 190h-30c-1-10 1-25-2-33-11 22-28 36-60 37" id="af"/><g id="i"><use transform="matrix(0.05,0,0,0.05,0,0)" xlink:href="#ae"/><use transform="matrix(0.05,0,0,0.05,10,0)" xlink:href="#af"/></g><path d="M115-194c55 1 70 41 70 98S169 2 115 4C84 4 66-9 55-30l1 105H24l-1-265h31l2 30c10-21 28-34 59-34zm-8 174c40 0 45-34 45-75s-6-73-45-74c-42 0-51 32-51 76 0 43 10 73 51 73" id="ag"/><path d="M101-234c-31-9-42 10-38 44h38v23H63V0H32v-167H5v-23h27c-7-52 17-82 69-68v24" id="ah"/><path d="M24 0v-261h32V0H24" id="ai"/><g id="j"><use transform="matrix(0.05,0,0,0.05,0,0)" xlink:href="#ag"/><use transform="matrix(0.05,0,0,0.05,10,0)" xlink:href="#X"/><use transform="matrix(0.05,0,0,0.05,15.949999999999998,0)" xlink:href="#ac"/><use transform="matrix(0.05,0,0,0.05,25.950000000000003,0)" xlink:href="#ah"/><use transform="matrix(0.05,0,0,0.05,30.950000000000003,0)" xlink:href="#ai"/><use transform="matrix(0.05,0,0,0.05,34.9,0)" xlink:href="#ai"/><use transform="matrix(0.05,0,0,0.05,38.85,0)" xlink:href="#Y"/></g><path d="M96-169c-40 0-48 33-48 73s9 75 48 75c24 0 41-14 43-38l32 2c-6 37-31 61-74 61-59 0-76-41-82-99-10-93 101-131 147-64 4 7 5 14 7 22l-32 3c-4-21-16-35-41-35" id="aj"/><path d="M135-143c-3-34-86-38-87 0 15 53 115 12 119 90S17 21 10-45l28-5c4 36 97 45 98 0-10-56-113-15-118-90-4-57 82-63 122-42 12 7 21 19 24 35" id="ak"/><g id="k"><use transform="matrix(0.05,0,0,0.05,0,0)" xlink:href="#aj"/><use transform="matrix(0.05,0,0,0.05,9,0)" xlink:href="#ac"/><use transform="matrix(0.05,0,0,0.05,19,0)" xlink:href="#ad"/><use transform="matrix(0.05,0,0,0.05,29,0)" xlink:href="#ak"/><use transform="matrix(0.05,0,0,0.05,38,0)" xlink:href="#af"/><use transform="matrix(0.05,0,0,0.05,48,0)" xlink:href="#ai"/><use transform="matrix(0.05,0,0,0.05,51.95,0)" xlink:href="#aa"/><use transform="matrix(0.05,0,0,0.05,56.95,0)" xlink:href="#Z"/><use transform="matrix(0.05,0,0,0.05,66.95,0)" xlink:href="#aa"/><use transform="matrix(0.05,0,0,0.05,71.95,0)" xlink:href="#ab"/><use transform="matrix(0.05,0,0,0.05,75.9,0)" xlink:href="#ac"/><use transform="matrix(0.05,0,0,0.05,85.9,0)" xlink:href="#ad"/></g><g id="l"><use transform="matrix(0.05,0,0,0.05,0,0)" xlink:href="#ae"/><use transform="matrix(0.05,0,0,0.05,10,0)" xlink:href="#af"/></g><g id="m"><use transform="matrix(0.05,0,0,0.05,0,0)" xlink:href="#ak"/><use transform="matrix(0.05,0,0,0.05,9,0)" xlink:href="#af"/><use transform="matrix(0.05,0,0,0.05,19,0)" xlink:href="#ag"/><use transform="matrix(0.05,0,0,0.05,29,0)" xlink:href="#X"/><use transform="matrix(0.05,0,0,0.05,34.95,0)" xlink:href="#Y"/><use transform="matrix(0.05,0,0,0.05,44.95,0)" xlink:href="#ak"/><use transform="matrix(0.05,0,0,0.05,53.95,0)" xlink:href="#ak"/><use transform="matrix(0.05,0,0,0.05,62.95,0)" xlink:href="#ab"/><use transform="matrix(0.05,0,0,0.05,66.9,0)" xlink:href="#ac"/><use transform="matrix(0.05,0,0,0.05,76.9,0)" xlink:href="#ad"/></g><g id="n"><use transform="matrix(0.05,0,0,0.05,0,0)" xlink:href="#ag"/><use transform="matrix(0.05,0,0,0.05,10,0)" xlink:href="#X"/><use transform="matrix(0.05,0,0,0.05,15.949999999999998,0)" xlink:href="#ac"/><use transform="matrix(0.05,0,0,0.05,25.950000000000003,0)" xlink:href="#ah"/><use transform="matrix(0.05,0,0,0.05,30.950000000000003,0)" xlink:href="#ab"/><use transform="matrix(0.05,0,0,0.05,34.9,0)" xlink:href="#ai"/><use transform="matrix(0.05,0,0,0.05,38.85,0)" xlink:href="#Y"/></g><path d="M210-169c-67 3-38 105-44 169h-31v-121c0-29-5-50-35-48C34-165 62-65 56 0H25l-1-190h30c1 10-1 24 2 32 10-44 99-50 107 0 11-21 27-35 58-36 85-2 47 119 55 194h-31v-121c0-29-5-49-35-48" id="al"/><g id="o"><use transform="matrix(0.05,0,0,0.05,0,0)" xlink:href="#al"/><use transform="matrix(0.05,0,0,0.05,14.950000000000001,0)" xlink:href="#ab"/><use transform="matrix(0.05,0,0,0.05,18.900000000000002,0)" xlink:href="#ak"/><use transform="matrix(0.05,0,0,0.05,27.900000000000002,0)" xlink:href="#Y"/></g><path d="M141-36C126-15 110 5 73 4 37 3 15-17 15-53c-1-64 63-63 125-63 3-35-9-54-41-54-24 1-41 7-42 31l-33-3c5-37 33-52 76-52 45 0 72 20 72 64v82c-1 20 7 32 28 27v20c-31 9-61-2-59-35zM48-53c0 20 12 33 32 33 41-3 63-29 60-74-43 2-92-5-92 41zm62-158l-58-49v-5h36c12 19 30 32 38 54h-16" id="am"/><use transform="matrix(0.05,0,0,0.05,0,0)" xlink:href="#am" id="p"/><path d="M24-231v-30h32v30H24zM-9 49c24 4 33-6 33-30v-209h32V24c2 40-23 58-65 49V49" id="an"/><g id="q"><use transform="matrix(0.05,0,0,0.05,0,0)" xlink:href="#an"/><use transform="matrix(0.05,0,0,0.05,3.95,0)" xlink:href="#ac"/><use transform="matrix(0.05,0,0,0.05,13.949999999999998,0)" xlink:href="#af"/><use transform="matrix(0.05,0,0,0.05,23.95,0)" xlink:href="#X"/></g><g id="r"><use transform="matrix(0.05,0,0,0.05,0,0)" xlink:href="#ae"/><use transform="matrix(0.05,0,0,0.05,10,0)" xlink:href="#Y"/><use transform="matrix(0.05,0,0,0.05,20,0)" xlink:href="#ak"/></g><path d="M100-194c63 0 86 42 84 106H49c0 40 14 67 53 68 26 1 43-12 49-29l28 8c-11 28-37 45-77 45C44 4 14-33 15-96c1-61 26-98 85-98zm52 81c6-60-76-77-97-28-3 7-6 17-6 28h103zm-74-98c8-23 27-35 38-54h36v5l-58 49H78" id="ao"/><g id="s"><use transform="matrix(0.05,0,0,0.05,0,0)" xlink:href="#ae"/><use transform="matrix(0.05,0,0,0.05,10,0)" xlink:href="#ac"/><use transform="matrix(0.05,0,0,0.05,20,0)" xlink:href="#ad"/><use transform="matrix(0.05,0,0,0.05,30,0)" xlink:href="#ad"/><use transform="matrix(0.05,0,0,0.05,40,0)" xlink:href="#ao"/><use transform="matrix(0.05,0,0,0.05,50,0)" xlink:href="#Y"/><use transform="matrix(0.05,0,0,0.05,60,0)" xlink:href="#ak"/></g><g id="t"><use transform="matrix(0.05,0,0,0.05,0,0)" xlink:href="#ag"/><use transform="matrix(0.05,0,0,0.05,10,0)" xlink:href="#Y"/><use transform="matrix(0.05,0,0,0.05,20,0)" xlink:href="#X"/><use transform="matrix(0.05,0,0,0.05,25.950000000000003,0)" xlink:href="#ak"/><use transform="matrix(0.05,0,0,0.05,34.95,0)" xlink:href="#ac"/><use transform="matrix(0.05,0,0,0.05,44.95,0)" xlink:href="#ad"/><use transform="matrix(0.05,0,0,0.05,54.95,0)" xlink:href="#Y"/><use transform="matrix(0.05,0,0,0.05,64.95,0)" xlink:href="#ai"/><use transform="matrix(0.05,0,0,0.05,68.9,0)" xlink:href="#ai"/><use transform="matrix(0.05,0,0,0.05,72.85000000000001,0)" xlink:href="#Y"/><use transform="matrix(0.05,0,0,0.05,82.85000000000001,0)" xlink:href="#ak"/></g><g id="u"><use transform="matrix(0.05,0,0,0.05,0,0)" xlink:href="#Z"/><use transform="matrix(0.05,0,0,0.05,10,0)" xlink:href="#an"/><use transform="matrix(0.05,0,0,0.05,13.949999999999998,0)" xlink:href="#ac"/><use transform="matrix(0.05,0,0,0.05,23.95,0)" xlink:href="#af"/><use transform="matrix(0.05,0,0,0.05,33.95,0)" xlink:href="#aa"/><use transform="matrix(0.05,0,0,0.05,38.95,0)" xlink:href="#Y"/><use transform="matrix(0.05,0,0,0.05,48.95,0)" xlink:href="#X"/></g><path d="M177-190C167-65 218 103 67 71c-23-6-38-20-44-43l32-5c15 47 100 32 89-28v-30C133-14 115 1 83 1 29 1 15-40 15-95c0-56 16-97 71-98 29-1 48 16 59 35 1-10 0-23 2-32h30zM94-22c36 0 50-32 50-73 0-42-14-75-50-75-39 0-46 34-46 75s6 73 46 73" id="ap"/><g id="v"><use transform="matrix(0.05,0,0,0.05,0,0)" xlink:href="#Y"/><use transform="matrix(0.05,0,0,0.05,10,0)" xlink:href="#ad"/><use transform="matrix(0.05,0,0,0.05,20,0)" xlink:href="#X"/><use transform="matrix(0.05,0,0,0.05,25.950000000000003,0)" xlink:href="#Y"/><use transform="matrix(0.05,0,0,0.05,35.95,0)" xlink:href="#ap"/><use transform="matrix(0.05,0,0,0.05,45.95,0)" xlink:href="#ab"/><use transform="matrix(0.05,0,0,0.05,49.900000000000006,0)" xlink:href="#ak"/><use transform="matrix(0.05,0,0,0.05,58.900000000000006,0)" xlink:href="#aa"/><use transform="matrix(0.05,0,0,0.05,63.900000000000006,0)" xlink:href="#X"/><use transform="matrix(0.05,0,0,0.05,69.85000000000001,0)" xlink:href="#Y"/><use transform="matrix(0.05,0,0,0.05,79.85000000000001,0)" xlink:href="#al"/><use transform="matrix(0.05,0,0,0.05,94.80000000000001,0)" xlink:href="#Y"/><use transform="matrix(0.05,0,0,0.05,104.80000000000001,0)" xlink:href="#ad"/><use transform="matrix(0.05,0,0,0.05,114.80000000000001,0)" xlink:href="#aa"/><use transform="matrix(0.05,0,0,0.05,119.80000000000001,0)" xlink:href="#ak"/></g><path d="M47-170H22l-4-78h33" id="aq"/><path d="M106-169C34-169 62-67 57 0H25v-261h32l-1 103c12-21 28-36 61-36 89 0 53 116 60 194h-32v-121c2-32-8-49-39-48" id="ar"/><g id="w"><use transform="matrix(0.05,0,0,0.05,0,0)" xlink:href="#ak"/><use transform="matrix(0.05,0,0,0.05,9,0)" xlink:href="#aq"/><use transform="matrix(0.05,0,0,0.05,12.4,0)" xlink:href="#Z"/><use transform="matrix(0.05,0,0,0.05,22.4,0)" xlink:href="#af"/><use transform="matrix(0.05,0,0,0.05,32.4,0)" xlink:href="#aa"/><use transform="matrix(0.05,0,0,0.05,37.4,0)" xlink:href="#ar"/><use transform="matrix(0.05,0,0,0.05,47.4,0)" xlink:href="#Y"/><use transform="matrix(0.05,0,0,0.05,57.400000000000006,0)" xlink:href="#ad"/><use transform="matrix(0.05,0,0,0.05,67.4,0)" xlink:href="#aa"/><use transform="matrix(0.05,0,0,0.05,72.4,0)" xlink:href="#ab"/><use transform="matrix(0.05,0,0,0.05,76.35000000000001,0)" xlink:href="#ah"/><use transform="matrix(0.05,0,0,0.05,81.35000000000001,0)" xlink:href="#ab"/><use transform="matrix(0.05,0,0,0.05,85.30000000000001,0)" xlink:href="#Y"/><use transform="matrix(0.05,0,0,0.05,95.30000000000001,0)" xlink:href="#X"/></g><path fill="#333" d="M15-91v-56l181-69v40L49-119l147 57v40" id="as"/><path fill="#333" d="M14-72v-43h91v43H14" id="at"/><path fill="#333" d="M25-224v-37h50v37H25zM25 0v-190h50V0H25" id="au"/><path fill="#333" d="M135-194c87-1 58 113 63 194h-50c-7-57 23-157-34-157-59 0-34 97-39 157H25l-1-190h47c2 12-1 28 3 38 12-26 28-41 61-42" id="av"/><path fill="#333" d="M190-63c-7 42-38 67-86 67-59 0-84-38-90-98-12-110 154-137 174-36l-49 2c-2-19-15-32-35-32-30 0-35 28-38 64-6 74 65 87 74 30" id="aw"/><path fill="#333" d="M25 0v-261h50V0H25" id="ax"/><path fill="#333" d="M85 4C-2 5 27-109 22-190h50c7 57-23 150 33 157 60-5 35-97 40-157h50l1 190h-47c-2-12 1-28-3-38-12 25-28 42-61 42" id="ay"/><path fill="#333" d="M88-194c31-1 46 15 58 34l-1-101h50l1 261h-48c-2-10 0-23-3-31C134-8 116 4 84 4 32 4 16-41 15-95c0-56 19-97 73-99zm17 164c33 0 40-30 41-66 1-37-9-64-41-64s-38 30-39 65c0 43 13 65 39 65" id="az"/><path fill="#333" d="M185-48c-13 30-37 53-82 52C43 2 14-33 14-96s30-98 90-98c62 0 83 45 84 108H66c0 31 8 55 39 56 18 0 30-7 34-22zm-45-69c5-46-57-63-70-21-2 6-4 13-4 21h74" id="aA"/><path fill="#333" d="M15-22v-40l146-57-146-57v-40l181 69v56" id="aB"/><g id="x"><use transform="matrix(0.04938271604938272,0,0,0.04938271604938272,0,0)" xlink:href="#as"/><use transform="matrix(0.04938271604938272,0,0,0.04938271604938272,10.370370370370372,0)" xlink:href="#at"/><use transform="matrix(0.04938271604938272,0,0,0.04938271604938272,16.246913580246915,0)" xlink:href="#au"/><use transform="matrix(0.04938271604938272,0,0,0.04938271604938272,21.185185185185187,0)" xlink:href="#av"/><use transform="matrix(0.04938271604938272,0,0,0.04938271604938272,32,0)" xlink:href="#aw"/><use transform="matrix(0.04938271604938272,0,0,0.04938271604938272,41.876543209876544,0)" xlink:href="#ax"/><use transform="matrix(0.04938271604938272,0,0,0.04938271604938272,46.81481481481482,0)" xlink:href="#ay"/><use transform="matrix(0.04938271604938272,0,0,0.04938271604938272,57.62962962962963,0)" xlink:href="#az"/><use transform="matrix(0.04938271604938272,0,0,0.04938271604938272,68.44444444444444,0)" xlink:href="#aA"/><use transform="matrix(0.04938271604938272,0,0,0.04938271604938272,78.32098765432099,0)" xlink:href="#at"/><use transform="matrix(0.04938271604938272,0,0,0.04938271604938272,84.19753086419753,0)" xlink:href="#aB"/></g><g id="y"><use transform="matrix(0.05,0,0,0.05,0,0)" xlink:href="#aj"/><use transform="matrix(0.05,0,0,0.05,9,0)" xlink:href="#ac"/><use transform="matrix(0.05,0,0,0.05,19,0)" xlink:href="#ad"/><use transform="matrix(0.05,0,0,0.05,29,0)" xlink:href="#ak"/><use transform="matrix(0.05,0,0,0.05,38,0)" xlink:href="#af"/><use transform="matrix(0.05,0,0,0.05,48,0)" xlink:href="#ai"/><use transform="matrix(0.05,0,0,0.05,51.95,0)" xlink:href="#aa"/><use transform="matrix(0.05,0,0,0.05,56.95,0)" xlink:href="#Z"/><use transform="matrix(0.05,0,0,0.05,66.95,0)" xlink:href="#aa"/><use transform="matrix(0.05,0,0,0.05,71.95,0)" xlink:href="#ab"/><use transform="matrix(0.05,0,0,0.05,75.9,0)" xlink:href="#ac"/><use transform="matrix(0.05,0,0,0.05,85.9,0)" xlink:href="#ad"/></g><g id="z"><use transform="matrix(0.05,0,0,0.05,0,0)" xlink:href="#ae"/><use transform="matrix(0.05,0,0,0.05,10,0)" xlink:href="#Y"/><use transform="matrix(0.05,0,0,0.05,20,0)" xlink:href="#ak"/></g><g id="A"><use transform="matrix(0.05,0,0,0.05,0,0)" xlink:href="#ag"/><use transform="matrix(0.05,0,0,0.05,10,0)" xlink:href="#X"/><use transform="matrix(0.05,0,0,0.05,15.949999999999998,0)" xlink:href="#ac"/><use transform="matrix(0.05,0,0,0.05,25.950000000000003,0)" xlink:href="#ah"/><use transform="matrix(0.05,0,0,0.05,30.950000000000003,0)" xlink:href="#ai"/><use transform="matrix(0.05,0,0,0.05,34.9,0)" xlink:href="#ai"/><use transform="matrix(0.05,0,0,0.05,38.85,0)" xlink:href="#Y"/><use transform="matrix(0.05,0,0,0.05,48.85,0)" xlink:href="#ak"/></g><g id="B"><use transform="matrix(0.05,0,0,0.05,0,0)" xlink:href="#ak"/><use transform="matrix(0.05,0,0,0.05,9,0)" xlink:href="#Y"/><use transform="matrix(0.05,0,0,0.05,19,0)" xlink:href="#ak"/></g><g id="C"><use transform="matrix(0.05,0,0,0.05,0,0)" xlink:href="#ag"/><use transform="matrix(0.05,0,0,0.05,10,0)" xlink:href="#Z"/><use transform="matrix(0.05,0,0,0.05,20,0)" xlink:href="#aa"/><use transform="matrix(0.05,0,0,0.05,25,0)" xlink:href="#ab"/><use transform="matrix(0.05,0,0,0.05,28.950000000000003,0)" xlink:href="#Y"/><use transform="matrix(0.05,0,0,0.05,38.95,0)" xlink:href="#ad"/><use transform="matrix(0.05,0,0,0.05,48.95,0)" xlink:href="#aa"/><use transform="matrix(0.05,0,0,0.05,53.95,0)" xlink:href="#ak"/></g><g id="D"><use transform="matrix(0.05,0,0,0.05,0,0)" xlink:href="#ag"/><use transform="matrix(0.05,0,0,0.05,10,0)" xlink:href="#X"/><use transform="matrix(0.05,0,0,0.05,15.949999999999998,0)" xlink:href="#ac"/><use transform="matrix(0.05,0,0,0.05,25.950000000000003,0)" xlink:href="#ah"/><use transform="matrix(0.05,0,0,0.05,30.950000000000003,0)" xlink:href="#ai"/><use transform="matrix(0.05,0,0,0.05,34.9,0)" xlink:href="#ai"/><use transform="matrix(0.05,0,0,0.05,38.85,0)" xlink:href="#Y"/></g><g id="E"><use transform="matrix(0.05925925925925927,0,0,0.05925925925925927,0,0)" xlink:href="#ag"/><use transform="matrix(0.05925925925925927,0,0,0.05925925925925927,11.851851851851853,0)" xlink:href="#Y"/><use transform="matrix(0.05925925925925927,0,0,0.05925925925925927,23.703703703703706,0)" xlink:href="#X"/><use transform="matrix(0.05925925925925927,0,0,0.05925925925925927,30.75555555555556,0)" xlink:href="#ak"/><use transform="matrix(0.05925925925925927,0,0,0.05925925925925927,41.42222222222223,0)" xlink:href="#ac"/><use transform="matrix(0.05925925925925927,0,0,0.05925925925925927,53.274074074074086,0)" xlink:href="#ad"/><use transform="matrix(0.05925925925925927,0,0,0.05925925925925927,65.12592592592594,0)" xlink:href="#Y"/><use transform="matrix(0.05925925925925927,0,0,0.05925925925925927,76.97777777777779,0)" xlink:href="#ai"/></g></defs></g></svg>